<svg id="Capa_1" data-name="Capa 1" xmlns="http://www.w3.org/2000/svg" xmlns:xlink="http://www.w3.org/1999/xlink" viewBox="0 0 850.59 770.83"><defs><clipPath id="clip-path"><path d="M161.14,85.47H775.58v356H311.39l.54-90.42c.05-8.58-6.58-15.56-14.77-15.56h-136Z" style="fill:none"/></clipPath><linearGradient id="Degradado_sin_nombre_18" x1="158.91" y1="155.82" x2="293.3" y2="155.82" gradientUnits="userSpaceOnUse"><stop offset="0" stop-color="#312783"/><stop offset="1" stop-color="#662483"/></linearGradient><linearGradient id="Degradado_sin_nombre_18-2" x1="691.26" y1="155.82" x2="825.65" y2="155.82" xlink:href="#Degradado_sin_nombre_18"/><linearGradient id="Degradado_sin_nombre_18-3" x1="372.4" y1="296.52" x2="506.79" y2="296.52" xlink:href="#Degradado_sin_nombre_18"/><linearGradient id="Degradado_sin_nombre_18-4" x1="94.74" y1="573.66" x2="245.29" y2="573.66" xlink:href="#Degradado_sin_nombre_18"/><linearGradient id="Degradado_sin_nombre_18-5" x1="287.7" y1="670.34" x2="362.1" y2="670.34" xlink:href="#Degradado_sin_nombre_18"/></defs><path d="M797.45.1c11.24,0,22.49.08,33.74-.07,2.23,0,3.06.43,2.61,2.67a11,11,0,0,0,0,2.07q0,387.12.1,774.23c0,3.89-.88,4.77-4.77,4.77q-412.17-.16-824.34,0C.88,783.77,0,782.89,0,779Q.17,391.88,0,4.77C0,.88.87,0,4.77,0,50.62.16,96.48.1,142.33.1,141.18,2,138.11,2.39,138,5.23c-1.93,3.53-1.27,7.39-1.28,11.11q-.1,93.39-.08,186.79,0,65.89.12,131.78c-1.86,1.36-4,.87-6,.87q-45.39,0-90.76,0c-4.42,0-8,1.32-9.69,5.8-.94,2.85-.85,5.8-.85,8.73q0,180.57,0,361.13c0,2.58.25,5.17.39,7.76a10.41,10.41,0,0,0-2,.39c-3,1.16-6.27,3-6.41,6.07-.17,3.85,3.68,5.82,6.86,6.88a59.36,59.36,0,0,0,14.56,3.23c20.25,1.31,40.53,3.06,60.8,3.08,50.6.06,101.22,1.22,151.81-.75,3.26-.13,5.86-.59,7.88-3.16q.09,15,.16,30c-2.36-.07-4.35,1-4.58,3.28-.3,2.81,2.12,4.46,4.34,5.14,5.36,1.62,10.85,3.72,16.32,3.85,12.24.3,24.43,1.71,36.71,1.31,14.82-.48,29.65,0,44.49-.85,8.16-.45,15.84-2.25,23.65-4,2.68-.59,5.21-1.91,5.73-4.61s-2-4.05-4.17-5.22c-.1-1.9-.25-3.79-.29-5.68-.26-13.3.48-26.62-.43-39.92.12-3.94.33-7.88.35-11.83q.16-32.51.25-65c9.43-1.58,18.86-.06,28.27-.11,40.61-.24,81.21.47,121.84-.55,32.62-.83,65.29-1.48,97.95-1.33,14.33.07,28.6-1.28,42.94-1.33a155.34,155.34,0,0,0,18-.9c17.6-2.15,35.33-2.12,53-3.85,13.74-1.34,27.33-2.83,40.44-7.34a20,20,0,0,0,8-4.59c4.77-4.77,4.59-9-1.2-12.64A52.39,52.39,0,0,0,778.36,602c-18.73-4-37.81-4.8-56.81-6.07-18.56-1.25-37.18-1.5-55.78-2.21-8.61-.33-17.26-.66-25.82-.72-22.28-.14-44.53-1.8-66.81-1.36-1.93,0-4-.19-4.28,2.53l-2.19-1.37c-1.28-3-2.28-6.25-6-7.3.28-1.68-1.39-2.11-2.06-3.19-1.58-1.77-.14-4.6-2.16-6.22a5.4,5.4,0,0,0-2.07-4.16c-2.15-2.87-.62-7.14-3.7-9.66-.17-1.27-.35-2.54-.52-3.81a1.85,1.85,0,0,0-1-2.07,6,6,0,0,0-1.1-4.16c.37-2.19-2.24-3.9-1-6.23q-1.61-8.85-3.22-17.7a27.13,27.13,0,0,0-.9-11.4c-.13-2.78.71-5.67-.93-8.28L541,507.51l.14,0c1.1-3.68.66-7.49,1-11.24,2.07,0,4.14-.1,6.22-.1H786.55c2.07,0,4.15,0,6.23,0,6.6-.15,9.93-3.3,10-9.88q.15-24.39,0-48.77c0-11.23-.19-22.46-.29-33.69.09-1.72.26-3.43.26-5.15q0-54.09,0-108.19,0-41.92-.2-83.85c.54-33.21.26-66.42,0-99.63l.09-26q0-20.23,0-40.49c.08-10.83.22-21.67.22-32.5,0-2.52-.7-4.83-3.87-5.09Z" style="fill:#fefefe"/><path d="M138,5.23c.07-2.84,3.14-3.19,4.29-5.13H797.45L799,3c-3.1,1.47-6.23,0-9.33,0q-155.25.18-310.49.11c-1.89,0-3.79.12-5.69.19L470.3,3.2l-316.06,0C148.76,3.23,143.2,2.64,138,5.23Z" style="fill:#353535"/><path d="M263.48,765q-.08-15-.16-30l0-3.09c.62-8.08.62-8.11-7.41-8.06-3.24,0-6.48.21-9.73.32l-2.1-.1a283.58,283.58,0,0,0-30.16.05h-2a6.59,6.59,0,0,0-4.21,0,44.08,44.08,0,0,0-11.36,0,63.09,63.09,0,0,0-14.6,0,237.19,237.19,0,0,0-26.93,0,55.92,55.92,0,0,0-13.56,0,37.16,37.16,0,0,0-10.32,0,65.9,65.9,0,0,0-14.59,0h-3.06a116.57,116.57,0,0,0-20.55.08c-14.64-.53-29.29-.67-43.93,0l-4,0a4.16,4.16,0,0,0-3.3,0c-4.41-.35-9.29.44-11.68-4.8-.14-2.59-.39-5.18-.39-7.76q0-180.57,0-361.13c0-2.93-.09-5.88.85-8.73,2.51-.92,4.7-2.37,7.7-2.36q63.37.19,126.74.09c1.88,0,3.83-.3,5.36,1.22,2.85,6.89,6.89,13.28,8.8,20.58-41.16.05-82.31.18-123.46,0-5,0-6.74,1-6.73,6.45q.29,161.28,0,322.56c0,5.46,1.61,6.49,6.7,6.48q100.37-.24,200.76-.11c8.84,0,7.43.48,7.58-7.4,0-17.24-.14-34.49-.15-51.73q0-34.15,0-68.3c0-6.43.44-6.86,6.66-6.9,3.8,0,7.59,0,11.39-.05l1.69.38a62.82,62.82,0,0,0,26.4-.09l10.09-.22,1,1.43c.05.34.09.68.13,1,1.42,3.78,1.79,8,5,11-.92,1.38.5,2.57.32,3.89-.33,3.41-2.93,2.77-5.08,2.78-14.69,0-29.38.12-44.06-.06-3.69,0-5.16.76-5.15,4.83q.19,76.68,0,153.38c0,4,1.33,4.9,5.08,4.88q47.43-.2,94.86,0c3.78,0,5.13-.94,5.06-4.91-.19-11.56,0-23.14.09-34.71,3,1.5,2.69,4.82,4.07,7.21,1.12,2,1,4.83,4,5.36.91,13.3.17,26.62.43,39.92,0,1.89.19,3.78.29,5.68-.84,3.8-3.77,4.2-6.92,4.23-1.55-.09-3.09-.27-4.64-.27q-37.87,0-75.76.07c-9.5,0-19,.13-28.5.2C267.51,768,264.73,768.06,263.48,765Zm-92.87-54.87c1.45-3.13.2-5.5-2.12-7.57-2.24-2.82-4.93-2.37-7.74-1.07-3.41.1-4.62,2.41-5,5.27s-.87,6.1,2.77,7.68C163.44,719,168.69,717.12,170.61,710.09Z" style="fill:#1d1d1d"/><path d="M802.52,403.84c.1,11.23.26,22.46.29,33.69q.06,24.39,0,48.77c0,6.58-3.38,9.73-10,9.88-2.08.05-4.16,0-6.23,0H548.36c-2.08,0-4.15.07-6.22.1-7.77,0-15.54-.08-23.31-.08l-121.23.14-88.2-.2-.9-1.92q.22-19.82.45-39.6l468.21,0c.52,0,1,0,1.56,0,4.63.16,6.91-2.87,8.16-6.62a26.79,26.79,0,0,0,1.14-8.14c.11-14.7,0-29.4.11-44.11,0-2.17-1.67-4.34,0-6.5,2.22,1.34,3.66,3.44,5.37,5.32C796.34,397.81,798.5,401.76,802.52,403.84ZM786,477.5c-3,2.6-4.84-1.88-7.52-1.32a8.47,8.47,0,0,0,1.13-5.25c-.38-3.32,1.73-1.69,3.09-1.55.68.89,1,2.1,2.68,2.59-.21-1.67-.77-2.68-2.26-3.11-6.21-3.6-12.5-.33-12.64,6.58s5.92,10.31,13.07,7c2.24-1,2.43-2.92,2.48-5,1.26-1,1.36-2.07.19-3.75C786.14,475.29,786.08,476.4,786,477.5Z" style="fill:#1a1a1a"/><path d="M138,5.23c5.16-2.59,10.72-2,16.2-2l316.06,0,3.13,3.68,10.47,14c-2.2,1.41-4.67,1-7.06,1H162.47c-8.26,0-10.78,2.54-10.78,10.82q0,71,0,142.09,0,77.52-.09,155.05c0,4.22,1,6,5.45,5.58,1.74-.17,4.4-1.24,5,2-7,0-14,0-21,.11-2.08,0-3.72-.32-4.23-2.65q-.08-65.88-.12-131.78,0-93.39.08-186.79C136.77,12.62,136.11,8.76,138,5.23Z" style="fill:#1a1a1a"/><path d="M483.9,20.86l-10.47-14c0-1.2.05-2.4.08-3.6,1.9-.07,3.8-.19,5.69-.19q155.25,0,310.49-.11c3.1,0,6.23,1.46,9.33,0,3.17.26,3.87,2.57,3.87,5.09,0,10.83-.14,21.67-.22,32.5-2.82-.91-5.95-.44-8.61-1.26-5-1.57-5,1-4.95,4.54.09,8.8,0,17.61-.07,26.42,0,1.6.76,3.58-1.44,4.53-.07-13.83-.46-27.67-.08-41.49.23-8.15-3.19-11.55-11.75-11.53q-142.69.27-285.38.09C488.2,21.86,485.86,22.48,483.9,20.86Z" style="fill:#a6a6a6"/><path d="M568.86,594.19c.32-2.72,2.35-2.49,4.28-2.53,22.28-.44,44.53,1.22,66.81,1.36,8.56.06,17.21.39,25.82.72,18.6.71,37.22,1,55.78,2.21,19,1.27,38.08,2.07,56.81,6.07a52.39,52.39,0,0,1,16.71,6.77c5.79,3.61,6,7.87,1.2,12.64a20,20,0,0,1-8,4.59c-13.11,4.51-26.7,6-40.44,7.34-17.63,1.73-35.36,1.7-53,3.85a155.34,155.34,0,0,1-18,.9c-14.34,0-28.61,1.4-42.94,1.33-32.66-.15-65.33.5-97.95,1.33-40.63,1-81.23.31-121.84.55-9.41,0-18.84-1.47-28.27.11a.52.52,0,0,1-.56.05l.81-5.24,1.27-1c60-.48,120,1.14,179.91-1.08,3.51-.12,6.92,1.43,10.23.92,13.87-2.16,27.88-1,41.79-1.58,24.45-1,48.94-1.18,73.41-2.22,21.15-.9,42.29-1.59,63.27-4.46,7.58-1,15.41-2.09,22-6.7,3.66-2.56,3.9-6,.48-8.79a16.8,16.8,0,0,0-4.87-2.88,94.33,94.33,0,0,0-26.71-5.2c-12-.64-23.9-1.91-35.84-2.68-10.46-.68-21-.84-31.42-1.28-19.12-.79-38.27-1.95-57.45-1.47-14.49.36-28.94-1.67-43.46-1-2.28.11-4.75-.31-4.5,3.22-2.33-.68-2.71-3.7-5.13-4.27C569,595.26,568.93,594.72,568.86,594.19Z" style="fill:#f4f4f4"/><path d="M802.52,403.84c-4-2.08-6.18-6-9.06-9.22-1.71-1.88-3.15-4-5.37-5.32-1.11-4.23-1-8.54-1-12.85q0-68.91,0-137.82c0-2.06.25-4.12.39-6.18,2.18-.57,1.55-2.38,1.57-3.8.07-4.1,0-8.21,0-12.31,0-14.28,0-14.28,13.45-9.69q.1,41.92.2,83.85.06,54.09,0,108.19C802.78,400.41,802.61,402.12,802.52,403.84Z" style="fill:#353535"/><path d="M543.9,528.32q1.62,8.85,3.22,17.7c-2.62-1.83-5.51-2.16-8.68-2.15-45.22.08-90.44,0-135.65.14-3.38,0-6.76-1.56-10.14-.06,1.05-5.19,1.24-10.56,3.13-15.58Z" style="fill:#c7c7c7"/><path d="M548.15,552.25a6,6,0,0,1,1.1,4.16c-1.5,1.51-.32,1.81,1,2.07.17,1.27.35,2.54.52,3.81-.71,2.81-3,2.4-5,2.4q-75.95,0-151.89,0c-2.2,0-4.07-.32-5.48-2.12.41-1.72.82-3.45,1.24-5.17,1.24-.25,2.44-.52,1-2.06-.05-1.16-.23-2.36,1-3.14Z" style="fill:#b5b5b5"/><path d="M397.6,496.35l121.23-.14c7.77,0,15.54.05,23.31.08-.32,3.75.12,7.56-1,11.24q-68.89,0-137.78.16a5.82,5.82,0,0,1-5.7-3.2C397.65,501.78,397.63,499.07,397.6,496.35Z" style="fill:#898989"/><path d="M802.58,206.65c-13.42-4.59-13.42-4.59-13.45,9.69,0,4.1,0,8.21,0,12.31,0,1.42.61,3.23-1.58,3.8q-.13-50.91-.26-101.82a10.28,10.28,0,0,1,.42-2c2.38-.81,1.4-2.84,1.43-4.35.11-6.1,0-12.2,0-18.31,0-.34,0-.68,0-1L802.56,107C802.84,140.23,803.12,173.44,802.58,206.65Z" style="fill:#5a5a5a"/><path d="M397.68,504.49a5.82,5.82,0,0,0,5.7,3.2q68.89-.22,137.78-.16l-.14,0,1.05,1.13c1.64,2.61.8,5.5.93,8.28l-1,0-144.31,0a6.68,6.68,0,0,0-1,0C396.84,512.78,396,508.54,397.68,504.49Z" style="fill:#a6a6a6"/><path d="M29.85,719.21c2.39,5.24,7.27,4.45,11.68,4.8-.06,1.4-1.73,3.18.42,4.09a36.57,36.57,0,0,0,8.12,2.59c14.28,2.4,28.8,2.49,43.18,2.89,21.2.6,42.44.72,63.65,1.33,22.8.65,45.55-1.06,68.34-1,6.22,0,12.46.25,18.66-.08,6.5-.35,13-1.26,19.44-1.92l0,3.09c-2,2.57-4.62,3-7.88,3.16-50.59,2-101.21.81-151.81.75-20.27,0-40.55-1.77-60.8-3.08a59.36,59.36,0,0,1-14.56-3.23c-3.18-1.06-7-3-6.86-6.88.14-3.08,3.43-4.91,6.41-6.07A10.41,10.41,0,0,1,29.85,719.21Z" style="fill:#e7e7e7"/><path d="M548.15,552.25H391.52c0-1,.07-2.07.1-3.1,1.27-.26,2.5-.53,1-2.08l.06-3.11c3.38-1.5,6.76.07,10.14.06,45.21-.12,90.43-.06,135.65-.14,3.17,0,6.06.32,8.68,2.15C545.91,548.35,548.52,550.06,548.15,552.25Z" style="fill:#bdbdbd"/><path d="M388.34,562.61c1.41,1.8,3.28,2.12,5.48,2.12q75.94-.08,151.89,0c2,0,4.3.41,5-2.4,3.08,2.52,1.55,6.79,3.7,9.66Q474,572,393.6,572c-3.52,0-6.44-.12-7.33-4.24l-.09-1.81Z" style="fill:#c7c7c7"/><path d="M560.71,585.52c3.68,1.05,4.68,4.29,6,7.3-2.41,0-4.83-.11-7.25-.11l-173.18,0a1.63,1.63,0,0,0-.1-.9c-.08-.42-.15-.85-.22-1.27.11-.64.21-1.27.32-1.91,1.8-2.5,4.46-2.11,7-2.1q80.76,0,161.53,0C556.77,586.45,559,587.21,560.71,585.52Z" style="fill:#bdbdbd"/><path d="M386.27,567.78c.89,4.12,3.81,4.24,7.33,4.24q80.4-.13,160.82-.07a5.4,5.4,0,0,1,2.07,4.16c-1.56,2.56-4.1,2.07-6.47,2.07q-77.67,0-155.34.07c-4.2,0-7.73-.08-8.38-5.26-.11-1.32-.23-2.64-.34-4C386.07,568.61,386.17,568.2,386.27,567.78Z" style="fill:#d5d5d5"/><path d="M386.3,573c.65,5.18,4.18,5.27,8.38,5.26q77.67-.15,155.34-.07c2.37,0,4.91.49,6.47-2.07,2,1.62.58,4.45,2.16,6.22a28.41,28.41,0,0,1-8.67,1.06q-78.36-.06-156.71,0c-2.56,0-5.23-.4-7,2.11l-.72-4C386.58,578.7,385.85,575.79,386.3,573Z" style="fill:#e7e7e7"/><path d="M136.8,334.91c.51,2.33,2.15,2.68,4.23,2.65,7-.1,14-.08,21-.11l1.26-2.33c1.89,1.28,4,.7,6,.7q62.85.06,125.7,0c4.14,0,8.1,0,11.26,3.15-1,1.83-2.17.7-3.3.13-.92-2.68-3.19-1.35-4.76-1.36q-62.76-.12-125.53-.06h-4.39l3.06,1.34-1.25,1.53c-1.53-1.52-3.48-1.22-5.36-1.22q-63.37,0-126.74-.09c-3,0-5.19,1.44-7.7,2.36,1.7-4.48,5.27-5.8,9.69-5.8q45.38,0,90.76,0C132.8,335.78,134.94,336.27,136.8,334.91Z" style="fill:#5a5a5a"/><path d="M386.24,592.67l173.18,0c2.42,0,4.84.07,7.25.11l2.19,1.37c.07.53.15,1.07.22,1.6-1.69,1.09-3.57,1.1-5.49,1.1l-178.29-.06c0-1.06.07-2.12.11-3.18l.9-1Z" style="fill:#a6a6a6"/><path d="M379.05,768.12c3.15,0,6.08-.43,6.92-4.23,2.14,1.17,4.7,2.47,4.17,5.22s-3.05,4-5.73,4.61c-7.81,1.72-15.49,3.52-23.65,4-14.84.82-29.67.37-44.49.85-12.28.4-24.47-1-36.71-1.31-5.47-.13-11-2.23-16.32-3.85-2.22-.68-4.64-2.33-4.34-5.14.23-2.29,2.22-3.35,4.58-3.28,1.25,3.1,4,3,6.67,3.16-.33,2.3.91,3,3,3.15,6.66.6,13.3,1.83,20,1.91q32,.38,64,0c6.32-.07,12.61-1.35,18.93-1.89C378.25,771.1,379.24,770.29,379.05,768.12Z" style="fill:#e7e7e7"/><path d="M396.74,517a6.68,6.68,0,0,1,1,0c0,7.27,0,7.28,7,7.28H534.84c7.18,0,7.18,0,7.21-7.25l1,0a27.13,27.13,0,0,1,.9,11.4l-148.12,0C396,524.55,394.64,520.6,396.74,517Z" style="fill:#bdbdbd"/><path d="M789.15,104.93c0,.35,0,.69,0,1l-1.29-.11a306.44,306.44,0,0,1-.25-31.06c2.2-1,1.42-2.93,1.44-4.53.09-8.81.16-17.62.07-26.42,0-3.57-.08-6.11,4.95-4.54,2.66.82,5.79.35,8.61,1.26q0,20.25,0,40.49c-3.22-.43-6.55-.48-9.62-1.41-3.32-1-3.94.19-3.91,3.09C789.19,90.13,789.15,97.53,789.15,104.93Z" style="fill:#898989"/><path d="M385.25,718.29c-3-.53-2.91-3.41-4-5.36-1.38-2.39-1.1-5.71-4.07-7.2q-.07-32.15-.14-64.27l8.28,0a.52.52,0,0,0,.56-.05q-.12,32.52-.25,65C385.58,710.41,385.37,714.35,385.25,718.29Z" style="fill:#353535"/><path d="M386.23,585.46c1.81-2.51,4.48-2.11,7-2.11q78.35,0,156.71,0a28.41,28.41,0,0,0,8.67-1.06c.67,1.08,2.34,1.51,2.06,3.19-1.75,1.69-3.94.93-5.92.93q-80.77.07-161.53,0c-2.56,0-5.22-.4-7,2.1C386.24,587.55,386.24,586.51,386.23,585.46Z" style="fill:#d5d5d5"/><path d="M789.15,104.93c0-7.4,0-14.8,0-22.2,0-2.9.59-4.09,3.91-3.09,3.07.93,6.4,1,9.62,1.41l-.09,26Z" style="fill:#777"/><path d="M550.2,558.48c-1.27-.26-2.45-.56-1-2.07A1.85,1.85,0,0,1,550.2,558.48Z" style="fill:#bdbdbd"/><path d="M542.07,508.64,541,507.51Z" style="fill:#898989"/><path d="M473.51,3.28c0,1.2-.06,2.4-.08,3.6L470.3,3.2Z" style="fill:#b5b5b5"/><path d="M281.7,562.15c-3.8,0-7.59,0-11.39.05-6.22,0-6.66.47-6.66,6.9q0,34.14,0,68.3c0,17.24.1,34.49.15,51.73a27.1,27.1,0,0,1-3.56.46q-100.16,0-200.31.13c-4,0-3.89-1.72-3.89-4.56Q56.08,529,56,372.87c0-3.23.57-4.35,4.14-4.35q108.72.18,217.44,0c3.4,0,4.26.84,4.25,4.26Q281.63,467.48,281.7,562.15Z" style="fill:#fefefe"/><path d="M281.7,562.15q0-94.68.12-189.35c0-3.42-.85-4.27-4.25-4.26q-108.72.15-217.44,0c-3.57,0-4.15,1.12-4.14,4.35Q56.11,529,56,685.16c0,2.84-.08,4.57,3.89,4.56q100.16-.22,200.31-.13a27.1,27.1,0,0,0,3.56-.46c-.15,7.88,1.26,7.4-7.58,7.4q-100.38,0-200.76.11c-5.09,0-6.71-1-6.7-6.48q.27-161.28,0-322.56c0-5.5,1.7-6.47,6.73-6.45,41.15.15,82.3,0,123.46,0,1.89.05,3.79.16,5.69.16,33.33,0,66.66.06,100-.07,3.54,0,4.72.84,4.66,4.53-.14,9.48.18,19,.32,28.46-1.09,14.55-.59,29.11-.11,43.66-.89,2-.56,4.08-.54,6.13q.27,26.11.61,52.22c-1.32,1.68-.73,3.66-.73,5.49,0,17.76-.19,35.53.12,53.28.08,4.48-.79,7.16-5.55,7.55Z" style="fill:#020202"/><path d="M396.74,517c-2.1,3.65-.74,7.6-1,11.42-1.89,5-2.08,10.39-3.13,15.58l-.06,3.11a1.89,1.89,0,0,0-1,2.08c0,1-.06,2.07-.1,3.1-1.19.78-1,2-1,3.14a1.85,1.85,0,0,0-1,2.06c-.42,1.72-.83,3.45-1.24,5.17L386.18,566l-.85-1.29c0-.67-.2-1.2-1-1.1h0c-1.16-2.82-3.69-1.94-5.74-2q-27.09-.09-54.18,0c-1.5,0-3.11-.47-4.48.61l-10.09.22c-1.12-1.72-.75-3.66-.76-5.52,0-12.37-.15-24.75,0-37.12.08-7.88-.64-15.79.39-23.65l88.2.2c0,2.72,0,5.43.08,8.14C396,508.54,396.84,512.78,396.74,517Z" style="fill:#fefefe"/><path d="M289.58,394.2c-.14-9.49-.46-19-.32-28.46.06-3.69-1.12-4.54-4.66-4.53-33.33.13-66.66.08-100,.07-1.9,0-3.8-.11-5.69-.16-1.91-7.3-5.95-13.69-8.8-20.58l1.25-1.53,131.62.08c1.13.57,2.27,1.7,3.3-.13a5.49,5.49,0,0,1,3,5.37c0,6.37.59,12.77-.31,19.13-4.52-1.12-9.13-1.12-13.75-1.22-3.31-.07-4.6.94-4.49,4.37.21,6.52,0,13,0,19.57C290.15,388.81,292,391.83,289.58,394.2Z" style="fill:#a6a6a6"/><path d="M377,641.46q.08,32.13.14,64.27c-.06,11.56-.28,23.14-.09,34.7.07,4-1.28,4.93-5.06,4.91q-47.43-.2-94.86,0c-3.75,0-5.09-.88-5.08-4.88q.18-76.69,0-153.38c0-4.07,1.46-4.88,5.15-4.83,14.68.18,29.37.08,44.06.06,2.15,0,4.75.63,5.08-2.78,1,2.53,2.93,2.85,5.39,2.82,11.37-.11,22.75,0,34.13,0,10.71,0,10.71,0,11.18,10.39q0,7.77,0,15.55Zm-4,22.35c0-24.55-.06-49.11.06-73.67,0-3.17-.54-4.42-4.14-4.4-29.41.16-58.82.12-88.23,0-3,0-4.48.28-4.47,4.09q.24,73.67,0,147.34c0,3.09.58,4.08,3.9,4.07q44.38-.22,88.75,0c3.53,0,4.18-1.07,4.16-4.32C373,712.58,373,688.2,373,663.81Z" style="fill:#020202"/><path d="M309.4,496.15c-1,7.86-.31,15.77-.39,23.65-.13,12.37,0,24.75,0,37.12,0,1.86-.36,3.8.76,5.52a62.82,62.82,0,0,1-26.4.09c4.75-.39,5.62-3.07,5.54-7.55-.31-17.75-.16-35.52-.12-53.28,0-1.83-.59-3.81.73-5.49,2.7-3.91.75-8.3,1.25-12.43.25-2.14.52-3.44,3-2.15a12.22,12.22,0,0,0,9.52.5c3-.94,4,.13,4.12,3.14s-1.14,6.2,1.05,9Z" style="fill:#353535"/><path d="M92.74,724.13a116.57,116.57,0,0,1,20.55-.08c1,2.17,2,2.15,3.06,0a65.9,65.9,0,0,1,14.59,0,8.26,8.26,0,0,0,10.32,0,55.92,55.92,0,0,1,13.56,0,2,2,0,0,0,1.9,1.43h23.14a1.93,1.93,0,0,0,1.89-1.43,63.09,63.09,0,0,1,14.6,0,10.05,10.05,0,0,0,11.36,0,6.59,6.59,0,0,1,4.21,0c.26.39.44,1,.78,1.13.85.26,1.07-.48,1.24-1.13A283.58,283.58,0,0,1,244.1,724c.19,1.19,1,1.53,2.07,1.51,4.33,0,8.65,0,13,.05,1.08,0,2.27.18,2.28,1.51s-1.18,1.51-2.26,1.54c-6.27.21-12.51,1.19-18.68,1.71-14.13,1.17-28.42.95-42.65,1.29-21.7.52-43.43.42-65.14,0-9.46-.18-18.92-.94-28.41-.95s-18.51-3.16-28-2.23c-1.62.16-3.36-1-5-1.51,5-2,9.89-1.07,14.75-1.44C88.27,725.34,90.89,726.52,92.74,724.13Z" style="fill:#b5b5b5"/><path d="M92.74,724.13c-1.85,2.39-4.47,1.21-6.76,1.38-4.86.37-9.8-.52-14.75,1.44,1.69.53,3.43,1.67,5,1.51,9.49-.93,18.63,2.23,28,2.23s19,.77,28.41.95c21.71.41,43.44.51,65.14,0,14.23-.34,28.52-.12,42.65-1.29,6.17-.52,12.41-1.5,18.68-1.71,1.08,0,2.26-.2,2.26-1.54s-1.2-1.5-2.28-1.51c-4.32,0-8.64,0-13-.05l0-1.41c3.25-.11,6.49-.3,9.73-.32,8,0,8,0,7.41,8.06-6.48.66-12.94,1.57-19.44,1.92-6.2.33-12.44.09-18.66.08-22.79,0-45.54,1.7-68.34,1-21.21-.61-42.45-.73-63.65-1.33-14.38-.4-28.9-.49-43.18-2.89A36.57,36.57,0,0,1,42,728.1c-2.15-.91-.48-2.69-.42-4.09a4.16,4.16,0,0,1,3.3,0c1.3,2.17,2.63,2.09,4,0C63.45,723.46,78.1,723.6,92.74,724.13Z" style="fill:#c7c7c7"/><path d="M377,592.7c-.47-10.39-.47-10.39-11.18-10.39-11.38,0-22.76-.07-34.13,0-2.46,0-4.42-.29-5.39-2.82.18-1.32-1.24-2.51-.32-3.89.14-2.33,1.69-2.65,3.61-2.64,17.28.12,34.57.1,51.84.41,2.22,0,2.8-.32,2.79-2.25,0-1.17.39-2,1.7-2.13.11,1.32.23,2.64.34,4-.45,2.8.28,5.71-.78,8.45-1.75,3.1-2.49,6.16.4,9.06.07.42.14.85.22,1.27l-.83,1Z" style="fill:#898989"/><path d="M379.05,768.12c.19,2.17-.8,3-3,3.17-6.32.54-12.61,1.82-18.93,1.89q-32,.36-64,0c-6.67-.08-13.31-1.31-20-1.91-2.07-.19-3.31-.85-3-3.15,9.5-.07,19-.18,28.5-.2q37.88-.07,75.76-.07C376,767.85,377.5,768,379.05,768.12Z" style="fill:#bdbdbd"/><path d="M386,569c-1.31.12-1.7,1-1.7,2.13,0,1.93-.57,2.29-2.79,2.25-17.27-.31-34.56-.29-51.84-.41-1.92,0-3.47.31-3.61,2.64-3.21-2.95-3.58-7.2-5-11q28.75,0,57.51,0c1.49,0,3.13.54,4.42-.77l1.33-.33h0l1,1.1.85,1.29.09,1.81C386.17,568.2,386.07,568.61,386,569Z" style="fill:#a6a6a6"/><path d="M384.28,563.57l-1.33.33-62.06-.25-1-1.43c1.37-1.08,3-.61,4.48-.61q27.09-.06,54.18,0C380.59,561.63,383.12,560.75,384.28,563.57Z" style="fill:#898989"/><path d="M320.89,563.65l62.06.25c-1.29,1.31-2.93.77-4.42.77q-28.75,0-57.51,0C321,564.33,320.94,564,320.89,563.65Z" style="fill:#bdbdbd"/><path d="M181.75,724.09a1.93,1.93,0,0,1-1.89,1.43H156.72a2,2,0,0,1-1.9-1.43A237.19,237.19,0,0,1,181.75,724.09Z" style="fill:#bdbdbd"/><path d="M160.75,701.45c2.81-1.3,5.5-1.75,7.74,1.07l-.69.7c-2.08-1.3-4-2.4-3.63,1.7a33.44,33.44,0,0,1-.09,4c-3.56-.82-.65-4.94-3.21-6.26Z" style="fill:#777"/><path d="M160.75,701.45l.12,1.21c-5.11,4.26-5.31,5.5-1.85,11.38a2.47,2.47,0,0,1-.53.36c-3.63-1.58-3.18-4.71-2.76-7.68S157.34,701.55,160.75,701.45Z" style="fill:#a6a6a6"/><path d="M170.61,710.09c-1.92,7-7.17,8.9-12.11,4.31A2.68,2.68,0,0,0,159,714c2.83,1.06,5.67,2.35,8.3-.44a5.4,5.4,0,0,0,2.32-3.65A2.89,2.89,0,0,0,170.61,710.09Z" style="fill:#a6a6a6"/><path d="M207.71,724.07a10.05,10.05,0,0,1-11.36,0A44.08,44.08,0,0,1,207.71,724.07Z" style="fill:#bdbdbd"/><path d="M141.26,724.07a8.26,8.26,0,0,1-10.32,0A37.16,37.16,0,0,1,141.26,724.07Z" style="fill:#bdbdbd"/><path d="M170.61,710.09a2.89,2.89,0,0,1-1-.14c-.45-2.29-.1-4.8-1.84-6.73l.69-.7C170.81,704.59,172.06,707,170.61,710.09Z" style="fill:#777"/><path d="M48.81,724.1c-1.35,2-2.68,2.13-4,0Z" style="fill:#e7e7e7"/><path d="M116.35,724.05c-1,2.15-2,2.17-3.06,0Z" style="fill:#bdbdbd"/><path d="M213.94,724.07c-.17.65-.39,1.39-1.24,1.13-.34-.11-.52-.74-.78-1.13Z" style="fill:#bdbdbd"/><path d="M246.2,724.12l0,1.41c-1.06,0-1.88-.32-2.07-1.51Z" style="fill:#bdbdbd"/><path d="M787.6,74.79a309.38,309.38,0,0,0,.24,31.06c-.94,7.59-.51,15.18-.17,22.77a10.28,10.28,0,0,0-.42,2q.11,50.91.26,101.82c-.13,2.06-.38,4.12-.38,6.18q0,68.91,0,137.82c0,4.31-.16,8.62,1,12.85-1.63,2.16,0,4.33,0,6.5-.11,14.71,0,29.41-.11,44.11a26.79,26.79,0,0,1-1.14,8.14c-1.25,3.75-3.53,6.78-8.16,6.62-.52,0-1,0-1.56,0L309,454.62c-.13-4.15-1-8.34.56-12.42q230.44,0,460.89.11c4.72,0,5.47-1.3,5.47-5.66q-.18-199.23,0-398.46c0-4.06-1-5-5-5q-301,.17-602.06,0c-4.12,0-5.47.69-5.47,5.19q.23,145.8.11,291.59c0,1.72-.09,3.45-.14,5.18L162,337.45c-.58-3.26-3.24-2.19-5-2-4.44.45-5.46-1.36-5.45-5.58q.19-77.52.09-155,0-71,0-142.09c0-8.28,2.52-10.82,10.78-10.82H476.84c2.39,0,4.86.39,7.06-1,2,1.62,4.3,1,6.49,1q142.68,0,285.38-.09c8.56,0,12,3.38,11.75,11.53C787.14,47.12,787.53,61,787.6,74.79Z" style="fill:#020202"/><path d="M309.51,442.2c-1.55,4.08-.69,8.27-.56,12.42l-.45,39.61c-2.19-2.76-.91-6-1.05-9s-1.08-4.08-4.12-3.14a12.22,12.22,0,0,1-9.52-.5c-2.5-1.29-2.77,0-3,2.15-.5,4.13,1.45,8.52-1.25,12.43q-.32-26.11-.61-52.22c0-2.05-.35-4.15.54-6.13,2.84-3.47,1.18-7.55,1.21-11.28,0-4.65-.11-8.39,6.32-6.2,1.09.37,2.4.06,3.62.06,6.76,0,6.49,0,6.88-6.66.24-4.29-1.61-8.83,1.2-12.89.11,2.58.25,5.15.33,7.73C309.34,419.81,308.55,431,309.51,442.2Z" style="fill:#5a5a5a"/><path d="M782.71,469.38c-1.36-.14-3.47-1.77-3.09,1.55a8.47,8.47,0,0,1-1.13,5.25c-1.67-1.59.9-5.22-2.53-5.74a3.23,3.23,0,0,0-3.28,2.72c-.5,2.76-.48,5.5,2,7.47,1.9,1.49,4.08,1.5,6.34,1,1-.21,2.38-1.51,2.51.84-7.15,3.27-13.22,0-13.07-7s6.43-10.18,12.64-6.58A2.28,2.28,0,0,1,782.71,469.38Z" style="fill:#898989"/><path d="M783.56,482.48c-.13-2.35-1.54-1.05-2.51-.84-2.26.49-4.44.48-6.34-1-2.51-2-2.53-4.71-2-7.47a3.23,3.23,0,0,1,3.28-2.72c3.43.52.86,4.15,2.53,5.74,2.68-.56,4.48,3.92,7.52,1.32l0,0C786,479.56,785.8,481.53,783.56,482.48Z" style="fill:#353535"/><path d="M783.13,468.86c1.49.43,2,1.44,2.26,3.11-1.66-.49-2-1.7-2.68-2.59A2.28,2.28,0,0,0,783.13,468.86Z" style="fill:#898989"/><path d="M786,477.5c.07-1.1.13-2.21.22-3.73,1.17,1.68,1.07,2.79-.19,3.75Z" style="fill:#353535"/><path d="M574.21,600.06c-.25-3.53,2.22-3.11,4.5-3.22,14.52-.68,29,1.35,43.46,1,19.18-.48,38.33.68,57.45,1.47,10.43.44,21,.6,31.42,1.28,11.94.77,23.87,2,35.84,2.68a94.33,94.33,0,0,1,26.71,5.2,16.8,16.8,0,0,1,4.87,2.88c3.42,2.81,3.18,6.23-.48,8.79-6.59,4.61-14.42,5.66-22,6.7-21,2.87-42.12,3.56-63.27,4.46-24.47,1-49,1.2-73.41,2.22-13.91.58-27.92-.58-41.79,1.58-3.31.51-6.72-1-10.23-.92-60,2.22-119.94.6-179.91,1.08,0-1.37,0-2.74,0-4.11,1.86-1.18,4-.92,6-1.1,7.62-.65,15.09,1.18,22.69,1.15,9.42,0,18.84-.38,28.27-.3,20.35.16,40.7.59,61.09-.47,10.53-.55,21.2.27,31.88-.11,23-.82,46.09-.06,69.13-1.19,12.67-.62,25.38-.48,38.08-.82,21.7-.58,43.4-1.24,65.08-2.41,9.78-.53,19.56-1.16,29.29-2.26,4.73-.54,9.36-2.15,14-3.51,2-.59,3.8-1.85,4.06-4.25.3-2.72-1.91-3.41-3.74-4.3a20.46,20.46,0,0,0-3.39-1.22c-14.36-4.05-29.23-4.07-43.91-5-15.1-.93-30.26-1.86-45.37-2.06-25.37-.34-50.72-2.05-76.11-1.28-1.7.05-3.62-.33-4,2.17-2-1.13-3.72-2.87-6.14-3.24C574.25,600.67,574.24,600.36,574.21,600.06Z" style="fill:#e7e7e7"/><path d="M574.21,600.06c0,.3,0,.61,0,.91-1,1.33-2.45,1.07-3.8,1.07q-90.12,0-180.24.06c-3.93,0-5.37-1.56-4.91-5.27l178.29.06c1.92,0,3.8,0,5.49-1.1C571.5,596.36,571.88,599.38,574.21,600.06Z" style="fill:#898989"/><path d="M377,641.46q0-16.61,0-33.21c5.75,1.22,10.77-2.25,16.53-2.23,60.32.27,120.65.18,181,.13,2,0,4.18.79,5.92-.94l1-.05a.7.7,0,0,0,.69.23c2.52,2.38,2.52,2.38,1.43,3.1-2.07,0-4.14-.15-6.21-.15q-75.63,0-151.26,0c-12.95,0-25.9.1-38.84.16-2.41,2.08-1,4.73-1.08,7.15,0,.28,0,.56,0,.84l-.13,9.35c0,1.72,0,3.44,0,5.16v5.24l-.81,5.24Z" style="fill:#5a5a5a"/><path d="M386.1,636.24V631l1.23.14c0,1.37,0,2.74,0,4.11Z" style="fill:#fefefe"/><path d="M389.58,557.44a1.85,1.85,0,0,1,1-2.06C392,556.92,390.82,557.19,389.58,557.44Z" style="fill:#bdbdbd"/><path d="M787.67,128.62c-.34-7.59-.77-15.18.17-22.77l1.3.11c0,6.11.07,12.21,0,18.31C789.07,125.78,790.05,127.81,787.67,128.62Z" style="fill:#777"/><path d="M542.05,517c0,7.25,0,7.25-7.21,7.25H404.78c-7,0-7,0-7-7.28Z" style="fill:#b5b5b5"/><path d="M391.62,549.14a1.89,1.89,0,0,1,1-2.08C394.12,548.61,392.89,548.88,391.62,549.14Z" style="fill:#c7c7c7"/><path d="M385.92,590.5c-2.89-2.9-2.15-6-.4-9.06l.72,4v3.13C386.13,589.23,386,589.86,385.92,590.5Z" style="fill:#777"/><path d="M385.31,592.74l.83-1a1.63,1.63,0,0,1,.1.9l.07,0-.93.17Z" style="fill:#777"/><path d="M309.51,442.2c-1-11.18-.17-22.39-.48-33.58-.08-2.58-.22-5.15-.33-7.73a134.47,134.47,0,0,0,.09-23.91c.86-4.49.47-9,.21-13.52.9-6.36.27-12.76.31-19.13a5.49,5.49,0,0,0-3-5.37c-3.16-3.18-7.12-3.15-11.26-3.15q-62.85.1-125.7,0c-2,0-4.15.58-6-.7.05-1.73.14-3.46.14-5.18q0-145.8-.11-291.59c0-4.5,1.35-5.19,5.47-5.19q301,.17,602.06,0c4,0,5,1,5,5q-.18,199.23,0,398.46c0,4.36-.75,5.66-5.47,5.66Q540,442.09,309.51,442.2Z" style="fill:#fefefe"/><path d="M303,339.09,171.37,339l-3.06-1.34h4.39q62.78,0,125.53.06C299.8,337.74,302.07,336.41,303,339.09Z" style="fill:#020202"/><path d="M580.45,605.21c-1.74,1.73-3.94.94-5.92.94-60.32.05-120.65.14-181-.13-5.76,0-10.78,3.45-16.53,2.23q0-7.77,0-15.55l8.27,0,.07.07a2.38,2.38,0,0,0,0,.84c0,1.06-.08,2.12-.11,3.18-.46,3.71,1,5.28,4.91,5.27q90.12-.12,180.24-.06c1.35,0,2.81.26,3.8-1.07,2.42.37,4.12,2.11,6.14,3.24l0-.07C580.4,604.5,580.42,604.85,580.45,605.21Z" style="fill:#777"/><path d="M385.41,593.65a2.38,2.38,0,0,1,0-.84l.93-.17Z" style="fill:#bdbdbd"/><path d="M308.79,377a134.47,134.47,0,0,1-.09,23.91c-2.81,4.06-1,8.6-1.2,12.89-.39,6.64-.12,6.66-6.88,6.66-1.22,0-2.53.31-3.62-.06-6.43-2.19-6.28,1.55-6.32,6.2,0,3.73,1.63,7.81-1.21,11.28-.48-14.55-1-29.11.11-43.66,2.44-2.37.57-5.39,1.21-8,4.49,1.17,9.15.68,13.66,1.38,2.59.4,2.72-.49,3-2.52C307.88,382.36,305.89,379.24,308.79,377Z" style="fill:#777"/><path d="M385.33,564.68l-1-1.1C385.13,563.48,385.31,564,385.33,564.68Z" style="fill:#898989"/><path d="M308.79,377c-2.9,2.26-.91,5.38-1.32,8.06-.3,2-.43,2.92-3,2.52-4.51-.7-9.17-.21-13.66-1.38,0-6.53.18-13.05,0-19.57-.11-3.43,1.18-4.44,4.49-4.37,4.62.1,9.23.1,13.75,1.22C309.26,368,309.65,372.49,308.79,377Z" style="fill:#898989"/><path d="M373,663.81c0,24.39-.06,48.77.07,73.15,0,3.25-.63,4.34-4.16,4.32q-44.37-.22-88.75,0c-3.32,0-3.91-1-3.9-4.07q.15-73.68,0-147.34c0-3.81,1.43-4.1,4.47-4.09,29.41.08,58.82.12,88.23,0,3.6,0,4.15,1.23,4.14,4.4C373,614.7,373,639.26,373,663.81Z" style="fill:#fefefe"/><path d="M167.32,713.6c-2.63,2.79-5.47,1.5-8.3.44-3.46-5.88-3.26-7.12,1.85-11.38,2.56,1.32-.35,5.44,3.21,6.26C165.62,710.16,167.9,710.9,167.32,713.6Z" style="fill:#353535"/><path d="M167.32,713.6c.58-2.7-1.7-3.44-3.24-4.68a33.44,33.44,0,0,0,.09-4c-.4-4.1,1.55-3,3.63-1.7,1.74,1.93,1.39,4.44,1.84,6.73A5.4,5.4,0,0,1,167.32,713.6Z" style="fill:#1a1a1a"/><path d="M387.33,631.14,386.1,631c0-1.72,0-3.44,0-5.16l1.25.07c.84,3.43,3.64,2,5.57,2q79.67.12,159.33,0c1.81,0,3.85.71,5.35-1.05h4.17a15.66,15.66,0,0,0,12.45,0l8.31-1c1.52,1.71,3.56,1,5.37,1l47.59-.69c21.21-.3,42.33-2.1,63.52-2.61,4.79-.12,9.77,1.6,14.22,0,7-2.52,14.47-2,21.54-3.89,2.6-.69,5.88-1.27,6-4,.16-3.19-3.27-3.79-6-4.42-12.8-2.94-25.91-3.08-38.9-4-16.64-1.14-33.36-1.38-50-2.06-19.37-.78-38.81.12-58.19-1.22a9,9,0,0,0-5.46,1.27.7.7,0,0,1-.69-.23l-1.13-1,0,.07c.36-2.5,2.28-2.12,4-2.17,25.39-.77,50.74.94,76.11,1.28,15.11.2,30.27,1.13,45.37,2.06,14.68.9,29.55.92,43.91,5a20.46,20.46,0,0,1,3.39,1.22c1.83.89,4,1.58,3.74,4.3-.26,2.4-2.06,3.66-4.06,4.25-4.61,1.36-9.24,3-14,3.51-9.73,1.1-19.51,1.73-29.29,2.26-21.68,1.17-43.38,1.83-65.08,2.41-12.7.34-25.41.2-38.08.82-23,1.13-46.11.37-69.13,1.19-10.68.38-21.35-.44-31.88.11-20.39,1.06-40.74.63-61.09.47-9.43-.08-18.85.26-28.27.3-7.6,0-15.07-1.8-22.69-1.15C391.29,630.22,389.19,630,387.33,631.14Z" style="fill:#d5d5d5"/><path d="M582.54,625.91l-8.31,1a16.84,16.84,0,0,0-12.45,0h-4.17c-1.73-1.74-3.93-1-5.91-1q-82.17-.08-164.34,0l-1.25-.07q.06-4.68.13-9.35l1.1.13c-.61,4,1,5.29,5.17,5.23,62.24-.77,124.5,1.19,186.74-1.06,11.28-.4,22.57-.54,33.86-1,11.87-.44,23.78.11,35.54-2.18,1.5-.29,3.76.17,3.87-1.67.12-2.24-2.51-2.13-4-2.33-6.81-.92-13.64-1.88-20.48-2.18-13.79-.6-27.6-.77-41.4-1.12-.21-2.61,1.25-3.15,3.53-3.14,14.1.08,28.23-.48,42.29.24,14.77.76,29.54,1.32,44.31,1.89,6.35.24,12.79.12,19,1.25,4.76.86,9.66,0,14.28,1.78,2.2.83,5.68,1,5.67,3.43,0,2.63-3.58,3.06-5.78,3.35-8.32,1.09-16.68,1.92-25.05,2.58-15.95,1.25-32,1-47.94,1.92-16.49.92-33,1.88-49.6,1.26C585.75,624.84,583.89,624.33,582.54,625.91Z" style="fill:#bdbdbd"/><path d="M582.54,625.91c1.35-1.58,3.21-1.07,4.85-1,16.56.62,33.11-.34,49.6-1.26,16-.89,32-.67,47.94-1.92,8.37-.66,16.73-1.49,25.05-2.58,2.2-.29,5.78-.72,5.78-3.35,0-2.48-3.47-2.6-5.67-3.43-4.62-1.73-9.52-.92-14.28-1.78-6.21-1.13-12.65-1-19-1.25-14.77-.57-29.54-1.13-44.31-1.89-14.06-.72-28.19-.16-42.29-.24-2.28,0-3.74.53-3.53,3.14-1.67,1.35-2.07,3.2-2.07,5.22q-41.18,0-82.36,0-58,0-116,.11c.07-2.42-1.33-5.07,1.08-7.15-.51,3.7.79,5.07,4.82,5.06q93.33-.19,186.67,0c4.05,0,5.31-1.39,4.82-5.07,1.09-.72,1.09-.72-1.43-3.1a9,9,0,0,1,5.46-1.27c19.38,1.34,38.82.44,58.19,1.22,16.68.68,33.4.92,50,2.06,13,.89,26.1,1,38.9,4,2.74.63,6.17,1.23,6,4.42-.13,2.68-3.41,3.26-6,4-7.07,1.87-14.5,1.37-21.54,3.89-4.45,1.59-9.43-.13-14.22,0-21.19.51-42.31,2.31-63.52,2.61l-47.59.69C586.1,627,584.06,627.62,582.54,625.91Z" style="fill:#c7c7c7"/><path d="M583.62,608.49c.49,3.68-.77,5.08-4.82,5.07q-93.33-.19-186.67,0c-4,0-5.33-1.36-4.82-5.06,12.94-.06,25.89-.16,38.84-.16q75.63,0,151.26,0C579.48,608.34,581.55,608.44,583.62,608.49Z" style="fill:#b5b5b5"/><path d="M386.23,615.65q58-.06,116-.11,41.18,0,82.36,0v1l-59.11,0h-135l-3.19,0-1.1-.13C386.23,616.21,386.22,615.93,386.23,615.65Z" style="fill:#898989"/><path d="M580.37,604.14l1.13,1-1,.05C580.42,604.85,580.4,604.5,580.37,604.14Z" style="fill:#e7e7e7"/><path d="M387.36,625.91q82.17,0,164.34,0c2,0,4.18-.78,5.91,1-1.5,1.76-3.54,1.05-5.35,1.05q-79.67,0-159.33,0C391,627.92,388.2,629.34,387.36,625.91Z" style="fill:#c7c7c7"/><path d="M561.78,626.91a16.84,16.84,0,0,1,12.45,0A15.66,15.66,0,0,1,561.78,626.91Z" style="fill:#c7c7c7"/><path d="M453.73,616.67h32.32a84.82,84.82,0,0,0,27.9,0H525.5c1,1.25,2.49.94,3.82.94q25.74,0,51.47,0c1.35,0,2.79.26,3.82-1v-1c0-2,.4-3.87,2.07-5.22,13.8.35,27.61.52,41.4,1.12,6.84.3,13.67,1.26,20.48,2.18,1.45.2,4.08.09,4,2.33-.11,1.84-2.37,1.38-3.87,1.67-11.76,2.29-23.67,1.74-35.54,2.18-11.29.42-22.58.56-33.86,1-62.24,2.25-124.5.29-186.74,1.06-4.14.06-5.78-1.18-5.17-5.23l3.19,0a60.66,60.66,0,0,0,23.75,0h11.55A84.55,84.55,0,0,0,453.73,616.67Z" style="fill:#b5b5b5"/><path d="M584.61,616.62c-1,1.25-2.47,1-3.82,1q-25.72,0-51.47,0c-1.33,0-2.78.31-3.82-.94Z" style="fill:#bdbdbd"/><path d="M453.73,616.67a84.55,84.55,0,0,1-27.9,0Z" style="fill:#bdbdbd"/><path d="M514,616.66a84.82,84.82,0,0,1-27.9,0Z" style="fill:#bdbdbd"/><path d="M414.28,616.66a60.66,60.66,0,0,1-23.75,0Z" style="fill:#bdbdbd"/><rect x="158.91" y="80.8" width="4.46" height="4.67" style="fill:#fff"/><g style="clip-path:url(#clip-path)"><rect x="158.91" y="85.47" width="134.4" height="140.7" style="fill:url(#Degradado_sin_nombre_18)"/><rect x="290.35" y="85.47" width="134.4" height="140.7" style="fill:#394449;stroke:#1d1d1b;stroke-miterlimit:10;stroke-width:1.8972962576652px"/><rect x="422.46" y="85.47" width="134.4" height="140.7" style="fill:#394449;stroke:#1d1d1b;stroke-miterlimit:10;stroke-width:1.8972962576652px"/><rect x="556.86" y="85.47" width="134.4" height="140.7" style="fill:#394449;stroke:#1d1d1b;stroke-miterlimit:10;stroke-width:1.8972962576652px"/><rect x="691.26" y="85.47" width="134.4" height="140.7" style="fill:url(#Degradado_sin_nombre_18-2)"/><rect x="108.84" y="226.17" width="134.4" height="140.7" style="fill:#394449;stroke:#1d1d1b;stroke-miterlimit:10;stroke-width:1.8972962576652px"/><rect x="240.28" y="226.17" width="134.4" height="140.7" style="fill:#394449;stroke:#1d1d1b;stroke-miterlimit:10;stroke-width:1.8972962576652px"/><rect x="372.4" y="226.17" width="134.4" height="140.7" style="fill:url(#Degradado_sin_nombre_18-3)"/><rect x="506.79" y="226.17" width="134.4" height="140.7" style="fill:#394449;stroke:#1d1d1b;stroke-miterlimit:10;stroke-width:1.8972962576652px"/><rect x="641.19" y="226.17" width="134.4" height="140.7" style="fill:#394449;stroke:#1d1d1b;stroke-miterlimit:10;stroke-width:1.8972962576652px"/><text transform="translate(717.46 133.75) scale(0.77 1)" style="font-size:47.669620513916016px;fill:#fff;font-family:Montserrat-Black, Montserrat;font-weight:800"><tspan style="letter-spacing:-0.060003999749351104em">Y<tspan x="30.98" y="0" style="letter-spacing:0.00002655044236696951em">our</tspan></tspan><tspan x="0" y="37.15" style="letter-spacing:-0.010009516772347507em">e</tspan><tspan x="30.65" y="37.15" style="letter-spacing:-0.015000999937337776em">v</tspan><tspan x="60.64" y="37.15">ent </tspan><tspan x="0" y="74.3">He</tspan><tspan x="69.45" y="74.3" style="letter-spacing:-0.004991483164990269em">r</tspan><tspan x="90.95" y="74.3">e </tspan></text><text transform="translate(173.62 133.75) scale(0.77 1)" style="font-size:47.669620513916016px;fill:#fff;font-family:Montserrat-Black, Montserrat;font-weight:800"><tspan style="letter-spacing:-0.060003999749351104em">Y<tspan x="30.98" y="0" style="letter-spacing:0.00002655044236696951em">our</tspan></tspan><tspan x="0" y="37.15" style="letter-spacing:-0.010009516772347507em">e</tspan><tspan x="30.65" y="37.15" style="letter-spacing:-0.015000999937337776em">v</tspan><tspan x="60.64" y="37.15">ent </tspan><tspan x="0" y="74.3">He</tspan><tspan x="69.45" y="74.3" style="letter-spacing:-0.004991483164990269em">r</tspan><tspan x="90.95" y="74.3">e </tspan></text><text transform="translate(389.19 272.07) scale(0.77 1)" style="font-size:47.669620513916016px;fill:#fff;font-family:Montserrat-Black, Montserrat;font-weight:800"><tspan style="letter-spacing:-0.060003999749351104em">Y<tspan x="30.98" y="0" style="letter-spacing:0.00002655044236696951em">our</tspan></tspan><tspan x="0" y="37.15" style="letter-spacing:-0.010009516772347507em">e</tspan><tspan x="30.65" y="37.15" style="letter-spacing:-0.015000999937337776em">v</tspan><tspan x="60.64" y="37.15">ent </tspan><tspan x="0" y="74.3">He</tspan><tspan x="69.45" y="74.3" style="letter-spacing:-0.004991483164990269em">r</tspan><tspan x="90.95" y="74.3">e </tspan></text><g style="opacity:0.2"><polygon points="331.79 127.97 331.79 115.74 371.24 115.74 385.76 101.11 313.88 101.11 313.88 173.53 359.1 127.97 331.79 127.97" style="fill:#fff"/><polygon points="350.69 156.93 374.08 156.93 374.08 169.16 338.55 169.16 322.84 184.99 397.13 184.99 397.13 110.14 350.69 156.93" style="fill:#fff"/><polygon points="306.28 166.4 313.94 176.97 396.44 101.11 313.88 188.8 306.28 166.4" style="fill:#fff"/><path d="M312.13,210.53H299.62l1-2.81,9-5.58h-6.94l1-2.8h12.51l-1,2.8-7.59,5.58h5.57Z" style="fill:#fff"/><path d="M318.23,199.35h4.17l-4,11.18H314.2Z" style="fill:#fff"/><path d="M324.46,199.34h4.18l2.14,5.6,2-5.6H337l-4,11.19h-4.18l-2.14-5.59-2,5.59h-4.17Z" style="fill:#fff"/><path d="M351.54,199.34l-1,2.8h-8.35l-2,5.58h4.17l1-2.78h4.16l-1.34,3.74a2.73,2.73,0,0,1-2.62,1.85H335l3.37-9.35a2.75,2.75,0,0,1,2.62-1.84Z" style="fill:#fff"/><path d="M352.94,201.18a2.76,2.76,0,0,1,2.62-1.84h10.56l-4,11.19H357.9l1-2.81h-4.16l-1,2.81h-4.16Zm2.82,3.76h4.16l1-2.8h-4.16Z" style="fill:#fff"/><path d="M368.18,199.34h4.18l2.14,5.6,2-5.6h4.16l-4,11.19h-4.18l-2.14-5.59-2,5.59h-4.17Z" style="fill:#fff;stroke:#1d1d1b;stroke-miterlimit:10;stroke-width:0.759684554647256px"/><path d="M394.26,202.14h-8.35l-.64,1.77h6.94l-.86,2.42h-7l-1.52,4.2h-4.16l4-11.19h12.51Z" style="fill:#fff;stroke:#1d1d1b;stroke-width:0.759684554647256px"/><path d="M400.74,210.53h-4.17l3-8.39h-4.17l1-2.8h11.79l-1,2.81-3.46,0Z" style="fill:#fff;stroke:#1d1d1b;stroke-width:0.759684554647256px"/></g><g style="opacity:0.2"><polygon points="285.33 269.39 285.33 257.17 324.78 257.17 339.3 242.54 267.42 242.54 267.42 314.95 312.64 269.39 285.33 269.39" style="fill:#fff"/><polygon points="304.23 298.36 327.63 298.36 327.63 310.59 292.09 310.59 276.38 326.41 350.68 326.41 350.68 251.57 304.23 298.36" style="fill:#fff"/><polygon points="259.82 307.82 267.49 318.39 349.99 242.54 267.42 330.23 259.82 307.82" style="fill:#fff"/><path d="M265.68,352H253.17l1-2.8,9-5.59H256.2l1-2.8h12.51l-1,2.8-7.59,5.59h5.56Z" style="fill:#fff"/><path d="M271.78,340.78h4.16l-4,11.17h-4.17Z" style="fill:#fff"/><path d="M278,340.76h4.18l2.13,5.61,2-5.61h4.17l-4,11.19H282.3l-2.14-5.58-2,5.58H274Z" style="fill:#fff"/><path d="M305.09,340.76l-1,2.8h-8.34l-2,5.59h4.16l1-2.78h4.16l-1.34,3.74a2.74,2.74,0,0,1-2.63,1.84H288.54l3.38-9.34a2.75,2.75,0,0,1,2.62-1.85Z" style="fill:#fff"/><path d="M306.49,342.61a2.76,2.76,0,0,1,2.62-1.85h10.55l-4,11.19h-4.18l1-2.8H308.3l-1,2.8h-4.16Zm2.82,3.76h4.16l1-2.81h-4.17Z" style="fill:#fff"/><path d="M321.73,340.76h4.18l2.13,5.61,2-5.61h4.16l-4,11.19H326l-2.14-5.58-2,5.58h-4.16Z" style="fill:#fff;stroke:#1d1d1b;stroke-miterlimit:10;stroke-width:0.759684554647256px"/><path d="M347.8,343.56h-8.34l-.65,1.78h6.95l-.86,2.42H338L336.43,352h-4.17l4-11.19h12.51Z" style="fill:#fff;stroke:#1d1d1b;stroke-width:0.759684554647256px"/><path d="M354.28,352h-4.16l3-8.39H349l1-2.8c3.93,0,7.86,0,11.79,0l-1,2.8-3.46,0Z" style="fill:#fff;stroke:#1d1d1b;stroke-width:0.759684554647256px"/></g><g style="opacity:0.2"><polygon points="153.89 269.39 153.89 257.17 193.34 257.17 207.86 242.54 135.98 242.54 135.98 314.95 181.21 269.39 153.89 269.39" style="fill:#fff"/><polygon points="172.79 298.36 196.19 298.36 196.19 310.59 160.65 310.59 144.94 326.41 219.24 326.41 219.24 251.57 172.79 298.36" style="fill:#fff"/><polygon points="128.38 307.82 136.05 318.39 218.54 242.54 135.98 330.23 128.38 307.82" style="fill:#fff"/><path d="M134.24,352H121.73l1-2.8,9-5.59h-7l1-2.8h12.51l-1,2.8-7.59,5.59h5.56Z" style="fill:#fff"/><path d="M140.34,340.78h4.16l-4,11.17H136.3Z" style="fill:#fff"/><path d="M146.57,340.76h4.18l2.13,5.61,2-5.61h4.17L155,352h-4.18l-2.14-5.58-2,5.58h-4.16Z" style="fill:#fff"/><path d="M173.65,340.76l-1,2.8H164.3l-2,5.59h4.16l1-2.78h4.16l-1.34,3.74a2.74,2.74,0,0,1-2.63,1.84H157.1l3.38-9.34a2.75,2.75,0,0,1,2.62-1.85Z" style="fill:#fff"/><path d="M175.05,342.61a2.76,2.76,0,0,1,2.62-1.85h10.55l-4,11.19H180l1-2.8h-4.17l-1,2.8h-4.16Zm2.82,3.76H182l1-2.81h-4.17Z" style="fill:#fff"/><path d="M190.29,340.76h4.18l2.13,5.61,2-5.61h4.16l-4,11.19h-4.18l-2.14-5.58-2,5.58h-4.16Z" style="fill:#fff;stroke:#1d1d1b;stroke-miterlimit:10;stroke-width:0.759684554647256px"/><path d="M216.36,343.56H208l-.65,1.78h6.95l-.86,2.42h-7L205,352h-4.17l4-11.19h12.51Z" style="fill:#fff;stroke:#1d1d1b;stroke-width:0.759684554647256px"/><path d="M222.84,352h-4.16l3-8.39h-4.16l1-2.8c3.93,0,7.86,0,11.79,0l-1,2.8-3.46,0Z" style="fill:#fff;stroke:#1d1d1b;stroke-width:0.759684554647256px"/></g><g style="opacity:0.2"><polygon points="468.66 127.97 468.66 115.74 508.11 115.74 522.63 101.11 450.75 101.11 450.75 173.53 495.97 127.97 468.66 127.97" style="fill:#fff"/><polygon points="487.56 156.93 510.95 156.93 510.95 169.16 475.42 169.16 459.71 184.99 534 184.99 534 110.14 487.56 156.93" style="fill:#fff"/><polygon points="443.15 166.4 450.81 176.97 533.31 101.11 450.75 188.8 443.15 166.4" style="fill:#fff"/><path d="M449,210.53H436.49l1-2.81,9-5.58h-6.94l1-2.8H453l-1,2.8-7.59,5.58H450Z" style="fill:#fff"/><path d="M455.1,199.35h4.17l-4,11.18h-4.16Z" style="fill:#fff"/><path d="M461.33,199.34h4.18l2.14,5.6,2-5.6h4.16l-4,11.19h-4.18l-2.14-5.59-2,5.59h-4.17Z" style="fill:#fff"/><path d="M488.41,199.34l-1,2.8h-8.35l-2,5.58h4.17l1-2.78h4.16L485,208.68a2.73,2.73,0,0,1-2.62,1.85H471.87l3.37-9.35a2.75,2.75,0,0,1,2.62-1.84Z" style="fill:#fff"/><path d="M489.81,201.18a2.76,2.76,0,0,1,2.62-1.84H503l-4,11.19h-4.18l1-2.81h-4.16l-1,2.81h-4.16Zm2.82,3.76h4.16l1-2.8h-4.16Z" style="fill:#fff"/><path d="M505.05,199.34h4.18l2.14,5.6,2-5.6h4.16l-4,11.19h-4.18l-2.14-5.59-2,5.59H501Z" style="fill:#fff;stroke:#1d1d1b;stroke-miterlimit:10;stroke-width:0.759684554647256px"/><path d="M531.13,202.14h-8.35l-.64,1.77h6.94l-.86,2.42h-7l-1.52,4.2h-4.16l4-11.19h12.51Z" style="fill:#fff;stroke:#1d1d1b;stroke-width:0.759684554647256px"/><path d="M537.61,210.53h-4.17l3-8.39h-4.17l1-2.8h11.79l-1,2.81-3.46,0Z" style="fill:#fff;stroke:#1d1d1b;stroke-width:0.759684554647256px"/></g><g style="opacity:0.2"><polygon points="614.81 127.97 614.81 115.74 654.26 115.74 668.77 101.11 596.89 101.11 596.89 173.53 642.12 127.97 614.81 127.97" style="fill:#fff"/><polygon points="633.71 156.93 657.1 156.93 657.1 169.16 621.57 169.16 605.86 184.99 680.15 184.99 680.15 110.14 633.71 156.93" style="fill:#fff"/><polygon points="589.29 166.4 596.96 176.97 679.46 101.11 596.89 188.8 589.29 166.4" style="fill:#fff"/><path d="M595.15,210.53H582.64l1-2.81,9-5.58h-7l1-2.8h12.51l-1,2.8-7.59,5.58h5.56Z" style="fill:#fff"/><path d="M601.25,199.35h4.17l-4,11.18h-4.17Z" style="fill:#fff"/><path d="M607.48,199.34h4.18l2.14,5.6,2-5.6H620l-4,11.19h-4.18l-2.14-5.59-2,5.59h-4.17Z" style="fill:#fff"/><path d="M634.56,199.34l-1,2.8h-8.35l-2,5.58h4.16l1-2.78h4.16l-1.34,3.74a2.74,2.74,0,0,1-2.62,1.85H618l3.38-9.35a2.75,2.75,0,0,1,2.62-1.84Z" style="fill:#fff"/><path d="M636,201.18a2.75,2.75,0,0,1,2.62-1.84h10.55l-4,11.19h-4.19l1-2.81h-4.17l-1,2.81h-4.16Zm2.82,3.76h4.16l1-2.8h-4.17Z" style="fill:#fff"/><path d="M651.2,199.34h4.18l2.14,5.6,2-5.6h4.17l-4,11.19h-4.18l-2.14-5.59-2,5.59h-4.16Z" style="fill:#fff;stroke:#1d1d1b;stroke-miterlimit:10;stroke-width:0.759684554647256px"/><path d="M677.28,202.14h-8.35l-.65,1.77h7l-.86,2.42h-7l-1.52,4.2h-4.17l4-11.19h12.51Z" style="fill:#fff;stroke:#1d1d1b;stroke-width:0.759684554647256px"/><path d="M683.75,210.53h-4.16l3-8.39h-4.16l1-2.8h11.79l-1,2.81-3.46,0Z" style="fill:#fff;stroke:#1d1d1b;stroke-width:0.759684554647256px"/></g><g style="opacity:0.2"><polygon points="556.02 269.39 556.02 257.17 595.47 257.17 609.99 242.54 538.11 242.54 538.11 314.95 583.34 269.39 556.02 269.39" style="fill:#fff"/><polygon points="574.92 298.36 598.32 298.36 598.32 310.59 562.78 310.59 547.07 326.41 621.37 326.41 621.37 251.57 574.92 298.36" style="fill:#fff"/><polygon points="530.51 307.82 538.17 318.39 620.67 242.54 538.11 330.23 530.51 307.82" style="fill:#fff"/><path d="M536.37,352H523.86l1-2.8,9-5.59h-7l1-2.8h12.5l-1,2.8-7.59,5.59h5.56Z" style="fill:#fff"/><path d="M542.47,340.78h4.16l-4,11.17h-4.17Z" style="fill:#fff"/><path d="M548.7,340.76h4.18l2.13,5.61,2-5.61h4.17l-4,11.19H553l-2.14-5.58-2,5.58h-4.16Z" style="fill:#fff"/><path d="M575.78,340.76l-1,2.8h-8.34l-2,5.59h4.16l1-2.78h4.16l-1.35,3.74a2.71,2.71,0,0,1-2.62,1.84H559.23l3.38-9.34a2.75,2.75,0,0,1,2.62-1.85Z" style="fill:#fff"/><path d="M577.18,342.61a2.76,2.76,0,0,1,2.62-1.85h10.55l-4,11.19h-4.18l1-2.8H579l-1,2.8h-4.16Zm2.82,3.76h4.16l1-2.81H581Z" style="fill:#fff"/><path d="M592.42,340.76h4.18l2.13,5.61,2-5.61h4.16l-4,11.19h-4.18l-2.14-5.58-2,5.58h-4.16Z" style="fill:#fff;stroke:#1d1d1b;stroke-miterlimit:10;stroke-width:0.759684554647256px"/><path d="M618.49,343.56h-8.34l-.65,1.78h7l-.87,2.42h-6.94L607.11,352H603l4-11.19H619.5Z" style="fill:#fff;stroke:#1d1d1b;stroke-width:0.759684554647256px"/><path d="M625,352h-4.16l3-8.39h-4.16l1-2.8c3.93,0,7.86,0,11.79,0l-1,2.8-3.47,0Z" style="fill:#fff;stroke:#1d1d1b;stroke-width:0.759684554647256px"/></g><g style="opacity:0.2"><polygon points="695.31 269.39 695.31 257.17 734.76 257.17 749.28 242.54 677.4 242.54 677.4 314.95 722.62 269.39 695.31 269.39" style="fill:#fff"/><polygon points="714.21 298.36 737.61 298.36 737.61 310.59 702.07 310.59 686.36 326.41 760.66 326.41 760.66 251.57 714.21 298.36" style="fill:#fff"/><polygon points="669.8 307.82 677.46 318.39 759.96 242.54 677.4 330.23 669.8 307.82" style="fill:#fff"/><path d="M675.66,352H663.15l1-2.8,9-5.59h-7l1-2.8h12.5l-1,2.8-7.59,5.59h5.56Z" style="fill:#fff"/><path d="M681.76,340.78h4.16l-4,11.17h-4.16Z" style="fill:#fff"/><path d="M688,340.76h4.18l2.13,5.61,2-5.61h4.16l-4,11.19h-4.19l-2.13-5.58-2,5.58H684Z" style="fill:#fff"/><path d="M715.07,340.76l-1,2.8h-8.34l-2,5.59h4.16l1-2.78H713l-1.35,3.74a2.71,2.71,0,0,1-2.62,1.84H698.52l3.38-9.34a2.75,2.75,0,0,1,2.62-1.85Z" style="fill:#fff"/><path d="M716.47,342.61a2.76,2.76,0,0,1,2.62-1.85h10.55l-4,11.19h-4.18l1-2.8h-4.16l-1,2.8h-4.17Zm2.82,3.76h4.16l1-2.81h-4.16Z" style="fill:#fff"/><path d="M731.71,340.76h4.18l2.13,5.61,2-5.61h4.16l-4,11.19H736l-2.13-5.58-2,5.58h-4.16Z" style="fill:#fff;stroke:#1d1d1b;stroke-miterlimit:10;stroke-width:0.759684554647256px"/><path d="M757.78,343.56h-8.34l-.65,1.78h7l-.87,2.42h-6.94L746.4,352h-4.16l4-11.19h12.51Z" style="fill:#fff;stroke:#1d1d1b;stroke-width:0.759684554647256px"/><path d="M764.26,352H760.1l3-8.39H759l1-2.8c3.93,0,7.86,0,11.79,0l-1,2.8-3.47,0Z" style="fill:#fff;stroke:#1d1d1b;stroke-width:0.759684554647256px"/></g></g><line x1="94.74" y1="414.19" x2="245.29" y2="414.19" style="fill:#394449;stroke:#1d1d1b;stroke-miterlimit:10;stroke-width:1.8972962576652px"/><line x1="94.74" y1="441.45" x2="245.29" y2="441.45" style="fill:#394449;stroke:#1d1d1b;stroke-miterlimit:10;stroke-width:1.8972962576652px"/><polygon points="385.66 698.87 481.73 603.21 566.58 677.91 632.03 546.57 723.48 603.21 797.13 404.54 766.71 393.45 832.62 374.98 853.8 425.16 830.06 413.54 742.16 666.86 644.5 588.37 579.39 749.97 484.59 640 385.66 757.65 385.66 698.87" style="fill:#e30613"/><line x1="94.74" y1="543.73" x2="245.29" y2="543.73" style="fill:#394449;stroke:#1d1d1b;stroke-miterlimit:10;stroke-width:1.8972962576652px"/><line x1="93" y1="608.22" x2="243.56" y2="608.22" style="fill:#394449;stroke:#1d1d1b;stroke-miterlimit:10;stroke-width:1.8972962576652px"/><line x1="93" y1="627.59" x2="243.56" y2="627.59" style="fill:#394449;stroke:#1d1d1b;stroke-miterlimit:10;stroke-width:1.8972962576652px"/><line x1="168.28" y1="474.03" x2="245.29" y2="474.03" style="fill:#394449;stroke:#1d1d1b;stroke-miterlimit:10;stroke-width:1.8972962576652px"/><line x1="168.28" y1="497.32" x2="245.29" y2="497.32" style="fill:#394449;stroke:#1d1d1b;stroke-miterlimit:10;stroke-width:1.8972962576652px"/><line x1="168.28" y1="520.62" x2="245.29" y2="520.62" style="fill:#394449;stroke:#1d1d1b;stroke-miterlimit:10;stroke-width:1.8972962576652px"/><rect x="98.57" y="459.47" width="54.93" height="66.25" style="fill:#394449;stroke:#1d1d1b;stroke-miterlimit:10;stroke-width:1.8972962576652px"/><rect x="94.74" y="558.47" width="150.55" height="30.37" style="fill:url(#Degradado_sin_nombre_18-4)"/><text transform="translate(105.54 579.06) scale(0.77 1)" style="font-size:19.12200927734375px;fill:#fff;font-family:Montserrat-Black, Montserrat;font-weight:800"><tspan style="letter-spacing:-0.06003260906498542em">Y</tspan><tspan x="12.43" y="0" style="letter-spacing:0.00006618810260748117em">our </tspan><tspan x="53.2" y="0" style="letter-spacing:-0.009994403493729657em">e</tspan><tspan x="65.49" y="0" style="letter-spacing:-0.015024699291898225em">v</tspan><tspan x="77.52" y="0">ent </tspan><tspan x="117.96" y="0" style="letter-spacing:0.009994403493729657em">h</tspan><tspan x="131.58" y="0">e</tspan><tspan x="144.06" y="0" style="letter-spacing:-0.004964107695561088em">r</tspan><tspan x="152.69" y="0">e</tspan></text><g style="opacity:0.2"><polygon points="121.96 481.08 121.96 477.19 134.53 477.19 139.16 472.53 116.25 472.53 116.25 495.61 130.66 481.08 121.96 481.08" style="fill:#fff"/><polygon points="127.98 490.32 135.44 490.32 135.44 494.21 124.11 494.21 119.1 499.26 142.78 499.26 142.78 475.4 127.98 490.32" style="fill:#fff"/><polygon points="113.83 493.33 116.27 496.7 142.56 472.53 116.25 500.47 113.83 493.33" style="fill:#fff"/><path d="M115.69,507.4h-4l.33-.9,2.85-1.78h-2.21l.32-.89h4l-.32.89-2.42,1.78H116Z" style="fill:#fff"/><path d="M117.64,503.84H119l-1.28,3.56h-1.33Z" style="fill:#fff"/><path d="M119.62,503.83H121l.68,1.79.65-1.79h1.33l-1.29,3.57H121l-.68-1.78-.65,1.78h-1.33Z" style="fill:#fff"/><path d="M128.25,503.83l-.32.89h-2.66l-.64,1.78H126l.32-.88h1.33l-.43,1.19a.88.88,0,0,1-.84.59H123l1.07-3a.89.89,0,0,1,.84-.59Z" style="fill:#fff"/><path d="M128.7,504.42a.87.87,0,0,1,.83-.59h3.37l-1.29,3.57h-1.33l.32-.9h-1.32l-.33.9h-1.33Zm.9,1.2h1.32l.32-.9h-1.32Z" style="fill:#fff"/><path d="M133.55,503.83h1.34l.68,1.79.64-1.79h1.33l-1.29,3.57h-1.33l-.68-1.78-.65,1.78h-1.32Z" style="fill:#fff;stroke:#1d1d1b;stroke-miterlimit:10;stroke-width:0.242116596097562px"/><path d="M141.87,504.72h-2.66l-.21.57h2.21l-.27.77h-2.21l-.49,1.34h-1.33l1.29-3.57h4Z" style="fill:#fff;stroke:#1d1d1b;stroke-width:0.242116596097562px"/><path d="M143.93,507.4H142.6l1-2.68h-1.33l.32-.89h3.76l-.32.89h-1.1Z" style="fill:#fff;stroke:#1d1d1b;stroke-width:0.242116596097562px"/></g><rect x="287.7" y="608.22" width="74.4" height="124.25" style="fill:url(#Degradado_sin_nombre_18-5)"/><ellipse cx="348.9" cy="621.65" rx="9.04" ry="9.46" style="fill:#fff"/><text transform="translate(343.54 627.61) scale(0.77 1)" style="font-size:22.952030181884766px;fill:#394449;font-family:Montserrat-Black, Montserrat;font-weight:800">x</text><text transform="translate(291.57 653.18) scale(0.77 1)" style="font-size:28.41284942626953px;fill:#fff;font-family:Montserrat-Black, Montserrat;font-weight:800"><tspan style="letter-spacing:-0.06000207396432371em">Y</tspan><tspan x="18.47" y="0">our </tspan><tspan style="letter-spacing:-0.009978073175952867em"><tspan x="0" y="22.14">e</tspan><tspan x="18.27" y="22.14" style="letter-spacing:-0.015011654733464806em">v</tspan><tspan x="36.14" y="22.14" style="letter-spacing:0.000044544969535503875em">ent </tspan></tspan><tspan x="0" y="44.29" style="letter-spacing:0.010022618145488372em">h</tspan><tspan x="20.23" y="44.29">e</tspan><tspan x="38.78" y="44.29" style="letter-spacing:-0.004989036587976434em">r</tspan><tspan x="51.6" y="44.29">e</tspan></text><rect x="163.21" y="31.24" width="612.38" height="29.75" style="fill:#263238"/><path d="M188.65,38.62H312a9.8,9.8,0,0,1,9.8,9.8v11a0,0,0,0,1,0,0h-143a0,0,0,0,1,0,0v-11A9.8,9.8,0,0,1,188.65,38.62Z" style="fill:#3c3c3b"/><path d="M331.64,38.62H455a9.8,9.8,0,0,1,9.8,9.8v11a0,0,0,0,1,0,0h-143a0,0,0,0,1,0,0v-11A9.8,9.8,0,0,1,331.64,38.62Z" style="fill:#575756"/><path d="M474.92,38.68H598.31a9.8,9.8,0,0,1,9.8,9.8v11a0,0,0,0,1,0,0h-143a0,0,0,0,1,0,0v-11A9.8,9.8,0,0,1,474.92,38.68Z" style="fill:#575756"/><ellipse cx="305.14" cy="50.54" rx="8.33" ry="6.58" style="fill:#fff"/><path d="M302.89,46.82l1.34,1.6c.36.41.65.8,1,1.21h.06c.31-.44.62-.83.93-1.23l1.33-1.58h1.84l-3.21,3.6,3.31,3.84h-1.94l-1.39-1.68c-.37-.43-.68-.84-1-1.29h0c-.31.45-.64.85-1,1.29l-1.36,1.68h-1.89l3.35-3.8L301,46.82Z"/><ellipse cx="449.97" cy="50.54" rx="8.33" ry="6.58" style="fill:#fff"/><path d="M447.72,46.82l1.34,1.6c.35.41.64.8.95,1.21h.06c.32-.44.63-.83.94-1.23l1.32-1.58h1.85L451,50.42l3.31,3.84h-1.95L451,52.58c-.37-.43-.68-.84-1-1.29h0c-.31.45-.64.85-1,1.29l-1.37,1.68h-1.88l3.34-3.8-3.19-3.64Z"/><ellipse cx="593.9" cy="50.54" rx="8.33" ry="6.58" style="fill:#fff"/><path d="M591.65,46.82l1.35,1.6c.35.41.64.8,1,1.21H594c.31-.44.62-.83.93-1.23l1.33-1.58h1.84l-3.21,3.6,3.31,3.84h-1.94l-1.39-1.68c-.37-.43-.68-.84-1-1.29h0c-.31.45-.64.85-1,1.29l-1.36,1.68h-1.89l3.35-3.8-3.19-3.64Z"/><rect x="163.21" y="60.63" width="612.38" height="24.84" style="fill:#253a42"/><rect x="174.08" y="65.94" width="595.93" height="13.06" rx="5.26" style="fill:#fff"/><path d="M178.84,67.05h12.68v10h-6l.09,0a6.37,6.37,0,0,0,2.13-.49c2-.86,3.18-2.61,2.86-4.43a4,4,0,0,0-1.3-2.24,5.89,5.89,0,0,0-2.79-1.35c-.3-.06-.6-.09-.92-.14V67.07l-3.37,2,3.38,2v-1.3A3.47,3.47,0,0,1,189,72.44c.19,1.58-1.18,3-3.17,3.24a4.42,4.42,0,0,1-2.72-.46,2.8,2.8,0,0,1-1.67-2.82h-1.68s0,0,0,.07a3.47,3.47,0,0,0,.63,2.28A5.44,5.44,0,0,0,184.17,77c.21,0,.44,0,.65.08h-6" style="fill:#fff"/><path d="M184.82,77.06c-.21,0-.44,0-.65-.08a5.44,5.44,0,0,1-3.84-2.23,3.47,3.47,0,0,1-.63-2.28s0,0,0-.07h1.68a2.8,2.8,0,0,0,1.67,2.82,4.42,4.42,0,0,0,2.72.46c2-.26,3.36-1.66,3.17-3.24a3.47,3.47,0,0,0-3.35-2.68v1.3l-3.38-2,3.37-2v1.32c.32,0,.62.08.92.14a5.89,5.89,0,0,1,2.79,1.35,4,4,0,0,1,1.3,2.24c.32,1.82-.82,3.57-2.86,4.43a6.37,6.37,0,0,1-2.13.49l-.09,0Z"/><rect x="55.6" y="367.05" width="226.9" height="18.53" style="fill:#263238"/><path d="M71.2,371.64h33.38a9.8,9.8,0,0,1,9.8,9.8v3.14a0,0,0,0,1,0,0h-53a0,0,0,0,1,0,0v-3.14A9.8,9.8,0,0,1,71.2,371.64Z" style="fill:#3c3c3b"/><path d="M124.18,371.64h33.38a9.8,9.8,0,0,1,9.8,9.8v3.14a0,0,0,0,1,0,0h-53a0,0,0,0,1,0,0v-3.14A9.8,9.8,0,0,1,124.18,371.64Z" style="fill:#575756"/><path d="M177.27,371.68h33.38a9.8,9.8,0,0,1,9.8,9.8v3.14a0,0,0,0,1,0,0h-53a0,0,0,0,1,0,0v-3.14A9.8,9.8,0,0,1,177.27,371.68Z" style="fill:#575756"/><ellipse cx="108.19" cy="379.07" rx="3.09" ry="4.1" style="fill:#fff"/><path d="M107.36,376.75l.5,1c.13.26.24.5.35.75h0c.12-.27.23-.51.35-.76l.49-1h.68L108.56,379l1.23,2.4h-.72l-.51-1.05c-.14-.27-.25-.52-.38-.8h0c-.12.28-.24.52-.37.8l-.5,1.05h-.7l1.24-2.37-1.19-2.27Z"/><ellipse cx="161.85" cy="379.07" rx="3.09" ry="4.1" style="fill:#fff"/><path d="M161,376.75l.5,1c.13.26.24.5.35.75h0c.12-.27.23-.51.35-.76l.49-1h.68L162.22,379l1.23,2.4h-.72l-.51-1.05c-.14-.27-.25-.52-.38-.8h0c-.12.28-.24.52-.37.8l-.5,1.05h-.7L161.5,379l-1.19-2.27Z"/><ellipse cx="215.18" cy="379.07" rx="3.09" ry="4.1" style="fill:#fff"/><path d="M214.35,376.75l.5,1c.13.26.24.5.35.75h0c.12-.27.23-.51.35-.76l.49-1h.68L215.56,379l1.22,2.4h-.72l-.51-1.05c-.14-.27-.25-.52-.38-.8h0c-.12.28-.24.52-.37.8l-.5,1.05h-.7l1.24-2.37-1.19-2.27Z"/><rect x="55.6" y="385.36" width="226.9" height="15.47" style="fill:#253a42"/><rect x="59.63" y="388.66" width="220.8" height="8.14" rx="3.13" style="fill:#fff"/><path d="M61.4,389.35h4.7v6.24H63.91a1.59,1.59,0,0,0,.78-.31,3,3,0,0,0,1.06-2.76,3,3,0,0,0-.48-1.39,2,2,0,0,0-1-.84,3.37,3.37,0,0,0-.34-.09v-.82l-1.25,1.24,1.25,1.24V391a1.68,1.68,0,0,1,1.24,1.67,1.83,1.83,0,0,1-1.17,2,1.08,1.08,0,0,1-1-.29,2.1,2.1,0,0,1-.62-1.75h-.62v0a3.22,3.22,0,0,0,.23,1.42,2.13,2.13,0,0,0,1.42,1.39l.24,0H61.4" style="fill:#fff"/><path d="M63.61,395.59l-.24,0A2.13,2.13,0,0,1,62,394.15a3.22,3.22,0,0,1-.23-1.42v0h.62a2.1,2.1,0,0,0,.62,1.75,1.08,1.08,0,0,0,1,.29,1.83,1.83,0,0,0,1.17-2A1.68,1.68,0,0,0,63.9,391v.81l-1.25-1.24,1.25-1.24v.82a3.37,3.37,0,0,1,.34.09,2,2,0,0,1,1,.84,3,3,0,0,1,.48,1.39,3,3,0,0,1-1.06,2.76,1.59,1.59,0,0,1-.78.31h-.3Z"/><rect x="276.25" y="585.39" width="97.25" height="9.43" style="fill:#263238"/><path d="M282.64,587.72h14.9a3.9,3.9,0,0,1,3.9,3.9v2.68a0,0,0,0,1,0,0H278.73a0,0,0,0,1,0,0v-2.68A3.9,3.9,0,0,1,282.64,587.72Z" style="fill:#3c3c3b"/><path d="M305.35,587.72h14.9a3.9,3.9,0,0,1,3.9,3.9v2.68a0,0,0,0,1,0,0H301.44a0,0,0,0,1,0,0v-2.68A3.9,3.9,0,0,1,305.35,587.72Z" style="fill:#575756"/><path d="M328.1,587.74H343a3.9,3.9,0,0,1,3.9,3.9v2.68a0,0,0,0,1,0,0H324.2a0,0,0,0,1,0,0v-2.68A3.9,3.9,0,0,1,328.1,587.74Z" style="fill:#575756"/><ellipse cx="298.79" cy="591.5" rx="1.32" ry="2.09" style="fill:#fff"/><path d="M298.43,590.32l.22.51.15.39h0c.05-.15.1-.27.15-.39l.21-.51h.29l-.51,1.14.52,1.22h-.3l-.22-.53c-.06-.14-.11-.27-.16-.41h0c0,.14-.1.27-.16.41l-.21.53h-.3l.53-1.2-.51-1.16Z"/><ellipse cx="321.79" cy="591.5" rx="1.32" ry="2.09" style="fill:#fff"/><path d="M321.43,590.32l.22.51.15.39h0c.05-.15.1-.27.14-.39l.22-.51h.29l-.51,1.14.52,1.22h-.3l-.22-.53-.17-.41h0c0,.14-.1.27-.16.41l-.22.53h-.3l.54-1.2-.51-1.16Z"/><ellipse cx="344.65" cy="591.5" rx="1.32" ry="2.09" style="fill:#fff"/><path d="M344.29,590.32l.21.51c.06.13.11.25.16.39h0c0-.15.1-.27.15-.39l.21-.51h.3l-.51,1.14.52,1.22H345l-.22-.53c-.06-.14-.1-.27-.16-.41h0c-.05.14-.11.27-.16.41l-.22.53H344l.53-1.2-.5-1.16Z"/><rect x="276.25" y="594.7" width="97.25" height="7.87" style="fill:#253a42"/><rect x="277.98" y="596.39" width="94.64" height="4.14" rx="1.23" style="fill:#fff"/><path d="M278.73,596.74h2v3.17h-.94a.71.71,0,0,0,.34-.16,1.71,1.71,0,0,0,.45-1.41,1.6,1.6,0,0,0-.21-.7.87.87,0,0,0-.44-.43l-.15-.05v-.42l-.53.64.54.63v-.41c.24,0,.5.35.53.85s-.19.94-.5,1a.41.41,0,0,1-.44-.14,1.23,1.23,0,0,1-.26-.9h-.27v0a2,2,0,0,0,.1.73,1,1,0,0,0,.61.71l.1,0h-.95" style="fill:#fff"/><path d="M279.68,599.91l-.1,0a1,1,0,0,1-.61-.71,2,2,0,0,1-.1-.73v0h.27a1.23,1.23,0,0,0,.26.9.41.41,0,0,0,.44.14c.31-.08.53-.52.5-1s-.29-.82-.53-.85V598l-.54-.63.53-.64v.42l.15.05a.87.87,0,0,1,.44.43,1.6,1.6,0,0,1,.21.7,1.71,1.71,0,0,1-.45,1.41.71.71,0,0,1-.34.16h-.13Z"/></svg>