<?xml version="1.0" encoding="utf-8"?>
<!-- Generator: Adobe Illustrator 24.1.2, SVG Export Plug-In . SVG Version: 6.00 Build 0)  -->
<svg version="1.1" id="Capa_1" xmlns="http://www.w3.org/2000/svg" xmlns:xlink="http://www.w3.org/1999/xlink" x="0px" y="0px"
	 viewBox="0 0 1080 400" style="enable-background:new 0 0 1080 400;" xml:space="preserve">
<style type="text/css">
	.st0{fill:url(#SVGID_1_);}
	.st1{fill:url(#SVGID_2_);}
	.st2{fill:#1D1D1B;}
	.st3{fill:none;stroke:#1D1D1B;stroke-width:6.2342;stroke-miterlimit:10;}
	.st4{fill:none;stroke:#1D1D1B;stroke-width:6.2342;}
	.st5{fill:url(#SVGID_3_);}
	.st6{fill:url(#SVGID_4_);}
	.st7{fill:none;stroke:#1D1D1B;stroke-width:5.2651;stroke-miterlimit:10;}
	.st8{fill:none;stroke:#1D1D1B;stroke-width:5.2651;}
	.st9{fill:url(#SVGID_5_);}
	.st10{fill:url(#SVGID_6_);}
	.st11{fill:#E2E2E4;}
	.st12{fill:none;stroke:#E2E2E4;stroke-width:5.2651;stroke-miterlimit:10;}
	.st13{fill:none;stroke:#E2E2E4;stroke-width:5.2651;}
	.st14{fill:#B2B2B2;}
	.st15{fill:#C6C6C6;}
	.st16{fill:#878787;}
	.st17{fill:none;stroke:#B2B2B2;stroke-width:3;}
	.st18{fill:url(#SVGID_7_);}
	.st19{fill:url(#SVGID_8_);}
	.st20{fill:url(#SVGID_9_);}
	.st21{fill:url(#SVGID_10_);}
	.st22{fill:url(#SVGID_11_);}
	.st23{fill:url(#SVGID_12_);}
	.st24{fill:none;stroke:#E2E2E4;stroke-width:6.2342;stroke-miterlimit:10;}
	.st25{fill:none;stroke:#E2E2E4;stroke-width:6.2342;}
	.st26{fill:#FFFFFF;stroke:#1D1D1B;stroke-width:6.2342;stroke-miterlimit:10;}
	.st27{fill:#FFFFFF;stroke:#1D1D1B;stroke-width:6.2342;}
	.st28{fill:none;stroke:#878787;stroke-width:6.2342;stroke-miterlimit:10;}
	.st29{fill:none;stroke:#878787;stroke-width:6.2342;}
</style>
<linearGradient id="SVGID_1_" gradientUnits="userSpaceOnUse" x1="57.662" y1="180.1634" x2="224.8515" y2="180.1634">
	<stop  offset="6.932046e-02" style="stop-color:#9316E2"/>
	<stop  offset="0.8827" style="stop-color:#1D1D1B"/>
</linearGradient>
<polygon class="st0" points="99.3,158.6 99.3,130.3 191.1,130.3 224.9,96.6 57.7,96.6 57.7,263.8 162.8,158.6 "/>
<linearGradient id="SVGID_2_" gradientUnits="userSpaceOnUse" x1="78.5051" y1="203.8152" x2="251.3119" y2="203.8152">
	<stop  offset="0.1173" style="stop-color:#1D1D1B"/>
	<stop  offset="0.9307" style="stop-color:#2503DB"/>
</linearGradient>
<polygon class="st1" points="143.3,225.4 197.7,225.4 197.7,253.7 115,253.7 78.5,290.2 251.3,290.2 251.3,117.4 "/>
<polygon class="st11" points="40,247.3 57.8,271.7 249.7,96.6 57.7,299 "/>
<path class="st11" d="M357.7,234.2h-87l7-19.3l62.4-38.6h-48.3l7-19.3h87l-7,19.3L326,214.9h38.7L357.7,234.2z"/>
<path class="st11" d="M400.1,157.1h29L401,234.2h-29L400.1,157.1z"/>
<path class="st11" d="M443.5,157h29.1l14.9,38.7l14.1-38.7h29l-28.1,77.3h-29.1l-14.9-38.6l-14.1,38.6h-29L443.5,157z"/>
<path class="st11" d="M631.8,157l-7,19.3h-58l-14,38.6h29l7-19.2h29l-9.4,25.8c-2.9,7.9-9.9,12.7-18.2,12.7h-73.4l23.5-64.5
	c2.9-7.7,9.9-12.7,18.2-12.7H631.8z"/>
<path class="st11" d="M641.6,169.7c2.9-7.7,9.9-12.7,18.2-12.7h73.4l-28.1,77.3H676l7.1-19.3h-29l-7.1,19.3h-29L641.6,169.7z
	 M661.2,195.7h29l7-19.4h-29L661.2,195.7z"/>
<path class="st12" d="M747.6,157h29.1l14.9,38.7l14.1-38.7h29l-28.1,77.3h-29.1l-14.9-38.6l-14.1,38.6h-29L747.6,157z"/>
<path class="st13" d="M929,176.3h-58l-4.5,12.2h48.3l-6,16.7h-48.3l-10.6,29h-29L849,157h87L929,176.3z"/>
<path class="st13" d="M974.1,234.2h-29l21.1-57.9h-29l7-19.3c27.3,0,54.7,0,82,0.1l-7,19.3l-24.1-0.1L974.1,234.2z"/>
</svg>
