<?xml version="1.0" encoding="utf-8"?>
<!-- Generator: Adobe Illustrator 24.1.2, SVG Export Plug-In . SVG Version: 6.00 Build 0)  -->
<svg version="1.1" id="Capa_1" xmlns="http://www.w3.org/2000/svg" xmlns:xlink="http://www.w3.org/1999/xlink" x="0px" y="0px"
	 viewBox="0 0 1080 400" style="enable-background:new 0 0 1080 400;" xml:space="preserve">
<style type="text/css">
	.st0{fill:url(#SVGID_1_);}
	.st1{fill:url(#SVGID_2_);}
	.st2{fill:#1D1D1B;}
	.st3{fill:none;stroke:#1D1D1B;stroke-width:6.2342;stroke-miterlimit:10;}
	.st4{fill:none;stroke:#1D1D1B;stroke-width:6.2342;}
	.st5{fill:url(#SVGID_3_);}
	.st6{fill:url(#SVGID_4_);}
	.st7{fill:none;stroke:#1D1D1B;stroke-width:5.2651;stroke-miterlimit:10;}
	.st8{fill:none;stroke:#1D1D1B;stroke-width:5.2651;}
	.st9{fill:url(#SVGID_5_);}
	.st10{fill:url(#SVGID_6_);}
	.st11{fill:#E2E2E4;}
	.st12{fill:none;stroke:#E2E2E4;stroke-width:5.2651;stroke-miterlimit:10;}
	.st13{fill:none;stroke:#E2E2E4;stroke-width:5.2651;}
	.st14{fill:#B2B2B2;}
	.st15{fill:#C6C6C6;}
	.st16{fill:#878787;}
	.st17{fill:none;stroke:#B2B2B2;stroke-width:3;}
	.st18{fill:url(#SVGID_7_);}
	.st19{fill:url(#SVGID_8_);}
	.st20{fill:url(#SVGID_9_);}
	.st21{fill:url(#SVGID_10_);}
	.st22{fill:url(#SVGID_11_);}
	.st23{fill:url(#SVGID_12_);}
	.st24{fill:none;stroke:#E2E2E4;stroke-width:6.2342;stroke-miterlimit:10;}
	.st25{fill:none;stroke:#E2E2E4;stroke-width:6.2342;}
	.st26{fill:#FFFFFF;stroke:#1D1D1B;stroke-width:6.2342;stroke-miterlimit:10;}
	.st27{fill:#FFFFFF;stroke:#1D1D1B;stroke-width:6.2342;}
	.st28{fill:none;stroke:#878787;stroke-width:6.2342;stroke-miterlimit:10;}
	.st29{fill:none;stroke:#878787;stroke-width:6.2342;}
</style>
<g>
	<linearGradient id="SVGID_1_" gradientUnits="userSpaceOnUse" x1="64.551" y1="182.3687" x2="231.7405" y2="182.3687">
		<stop  offset="6.932046e-02" style="stop-color:#9316E2"/>
		<stop  offset="0.8827" style="stop-color:#1D1D1B"/>
	</linearGradient>
	<polygon class="st0" points="106.2,160.8 106.2,132.5 198,132.5 231.7,98.8 64.6,98.8 64.6,266 169.7,160.8 	"/>
	<linearGradient id="SVGID_2_" gradientUnits="userSpaceOnUse" x1="85.3941" y1="206.0204" x2="258.2009" y2="206.0204">
		<stop  offset="0.1173" style="stop-color:#1D1D1B"/>
		<stop  offset="0.9307" style="stop-color:#2503DB"/>
	</linearGradient>
	<polygon class="st1" points="150.2,227.6 204.6,227.6 204.6,255.9 121.9,255.9 85.4,292.4 258.2,292.4 258.2,119.6 	"/>
	<polygon class="st2" points="46.9,249.5 64.7,273.9 256.6,98.8 64.6,301.2 	"/>
	<path class="st2" d="M364.6,236.4h-87l7-19.3l62.4-38.6h-48.3l7-19.3h87l-7,19.3l-52.8,38.6h38.7L364.6,236.4z"/>
	<path class="st2" d="M407,159.3h29l-28.1,77.1h-29L407,159.3z"/>
	<path class="st2" d="M450.3,159.2h29.1l14.9,38.7l14.1-38.7h29l-28.1,77.3h-29.1l-14.9-38.6l-14.1,38.6h-29L450.3,159.2z"/>
	<path class="st2" d="M638.7,159.2l-7,19.3h-58l-14,38.6h29l7-19.2h29l-9.4,25.8c-2.9,7.9-9.9,12.7-18.2,12.7h-73.4l23.5-64.5
		c2.9-7.7,9.9-12.7,18.2-12.7H638.7z"/>
	<path class="st2" d="M648.5,171.9c2.9-7.7,9.9-12.7,18.2-12.7h73.4L712,236.4h-29.1l7.1-19.3h-29l-7.1,19.3h-29L648.5,171.9z
		 M668.1,197.9h29l7-19.4h-29L668.1,197.9z"/>
	<path class="st7" d="M754.5,159.2h29.1l14.9,38.7l14.1-38.7h29l-28.1,77.3h-29.1l-14.9-38.6l-14.1,38.6h-29L754.5,159.2z"/>
	<path class="st8" d="M935.9,178.5h-58l-4.5,12.2h48.3l-6,16.7h-48.3l-10.6,29h-29l28.1-77.3h87L935.9,178.5z"/>
	<path class="st8" d="M980.9,236.4h-29l21.1-57.9h-29l7-19.3c27.3,0,54.7,0,82,0.1l-7,19.3l-24.1-0.1L980.9,236.4z"/>
</g>
</svg>
