<svg id="Capa_1" data-name="Capa 1" xmlns="http://www.w3.org/2000/svg" xmlns:xlink="http://www.w3.org/1999/xlink" viewBox="0 0 989.77 202.45"><defs><linearGradient id="Degradado_sin_nombre_12" x1="17.68" y1="83.59" x2="184.87" y2="83.59" gradientUnits="userSpaceOnUse"><stop offset="0.07" stop-color="#9316e2"/><stop offset="0.88" stop-color="#1d1d1b"/></linearGradient><linearGradient id="Degradado_sin_nombre_15" x1="38.52" y1="107.25" x2="211.33" y2="107.25" gradientUnits="userSpaceOnUse"><stop offset="0.12" stop-color="#1d1d1b"/><stop offset="0.93" stop-color="#2503db"/></linearGradient></defs><polygon points="59.34 62 59.34 33.77 151.1 33.77 184.87 0 17.68 0 17.68 167.19 122.86 62 59.34 62" style="fill:url(#Degradado_sin_nombre_12)"/><polygon points="103.3 128.87 157.72 128.87 157.72 157.11 75.06 157.11 38.52 193.65 211.33 193.65 211.33 20.84 103.3 128.87" style="fill:url(#Degradado_sin_nombre_15)"/><polygon points="0 150.73 17.82 175.13 209.71 0 17.68 202.45 0 150.73" style="fill:#fff"/><path d="M317.7,137.66h-87l7-19.35L300.1,79.73H251.79l7-19.35h87l-7,19.35L286,118.31h38.7Z" style="fill:#fff"/><path d="M360.16,60.51h29L361,137.66h-29Z" style="fill:#fff"/><path d="M403.47,60.38h29.09l14.86,38.7,14.1-38.7h29L462.4,137.66H433.31L418.45,99.08l-14.1,38.58h-29Z" style="fill:#fff"/><path d="M591.86,60.38l-7,19.35h-58l-14,38.58h29l7-19.23h29l-9.37,25.85a19,19,0,0,1-18.22,12.73H476.76l23.47-64.54a19.15,19.15,0,0,1,18.23-12.74Z" style="fill:#fff"/><path d="M601.61,73.12a19.15,19.15,0,0,1,18.23-12.74h73.4l-28.09,77.28H636.06l7.12-19.35h-29l-7.11,19.35h-29Zm19.6,26h29l7-19.35h-29Z" style="fill:#fff"/><path d="M707.6,60.38h29.09l14.85,38.7,14.11-38.7h29l-28.09,77.28H737.44L722.58,99.08l-14.1,38.58h-29Z" style="fill:none;stroke:#fff;stroke-miterlimit:10;stroke-width:5.2651201034053px"/><path d="M889,79.73H831L826.46,92h48.31l-6,16.73H820.46l-10.61,29h-29L809,60.38h87Z" style="fill:none;stroke:#fff;stroke-width:5.2651201034053px"/><path d="M934.07,137.66h-29l21.1-57.93h-29l7-19.35q41,0,82,.13l-7,19.35-24.09-.13Z" style="fill:none;stroke:#fff;stroke-width:5.2651201034053px"/></svg>