<svg id="Capa_1" data-name="Capa 1" xmlns="http://www.w3.org/2000/svg" viewBox="0 0 764.36 79.16"><path d="M87,79.16H0L7,59.81,69.41,21.24H21.1l7-19.35h87l-7,19.35L55.3,59.81H94Z" style="fill:#c6c6c6"/><path d="M129.46,2h29L130.34,79.16h-29Z" style="fill:#c6c6c6"/><path d="M172.78,1.89h29.09l14.86,38.7,14.1-38.7h29L231.71,79.16H202.62L187.76,40.59l-14.1,38.57h-29Z" style="fill:#c6c6c6"/><path d="M361.17,1.89l-7,19.35H296.13l-14,38.57h29l7-19.22h29L337.7,66.43a19,19,0,0,1-18.23,12.73h-73.4l23.47-64.54A19.14,19.14,0,0,1,287.77,1.89Z" style="fill:#c6c6c6"/><path d="M370.92,14.62A19.14,19.14,0,0,1,389.15,1.89h73.4L434.46,79.16H405.37l7.12-19.35h-29l-7.11,19.35h-29Zm19.59,26h29l7-19.35h-29Z" style="fill:#c6c6c6"/><path d="M476.91,1.89H506l14.85,38.7L535,1.89h29L535.83,79.16H506.75L491.89,40.59,477.78,79.16h-29Z" style="fill:none;stroke:#b2b2b2;stroke-width:3px"/><path d="M658.31,21.24h-58l-4.49,12.23h48.31l-6,16.73H589.77l-10.61,29h-29L578.29,1.89h87Z" style="fill:none;stroke:#b2b2b2;stroke-width:3px"/><path d="M703.38,79.16h-29l21.1-57.92h-29l7-19.35q41,0,82,.12l-7,19.35-24.09-.12Z" style="fill:none;stroke:#b2b2b2;stroke-width:3px"/></svg>