<svg id="Capa_1" data-name="Capa 1" xmlns="http://www.w3.org/2000/svg" xmlns:xlink="http://www.w3.org/1999/xlink" viewBox="0 0 430 430"><defs><style>.cls-1,.cls-3,.cls-5,.cls-7{fill:none;}.cls-2{clip-path:url(#clip-path);}.cls-3{stroke:#36a9e1;stroke-width:8.97px;}.cls-3,.cls-5,.cls-6,.cls-7,.cls-8{stroke-miterlimit:10;}.cls-4{fill:#36a9e1;}.cls-5,.cls-6,.cls-8{stroke:#1d71b8;}.cls-5,.cls-6{stroke-width:2.74px;}.cls-6{fill:#1d71b8;}.cls-7{stroke:#000040;stroke-width:4.03px;}.cls-8{fill:#fff;stroke-linecap:round;stroke-width:9.85px;}</style><clipPath id="clip-path"><path class="cls-1" d="M124.66,281.74a15.5,15.5,0,0,1,10.21-19.4l2.16-.67a15.51,15.51,0,0,1,19.4,10.21l-1.8-5.8,112.82-59.67,18.09,58.31L267.31,206a15.57,15.57,0,0,1,10.26-19.49l2-.63a15.54,15.54,0,0,1,13,1.75V94.83H31V300h99.31Z"/></clipPath></defs><g class="cls-2"><path class="cls-3" d="M47,129.93H274.86a0,0,0,0,1,0,0V254.06a36,36,0,0,1-36,36H68.92A21.92,21.92,0,0,1,47,268.13V129.93A0,0,0,0,1,47,129.93Z"/><polygon class="cls-4" points="255.58 129.93 255.58 103.01 236.06 103.01 236.06 129.93 91.07 129.93 91.07 103.01 71.56 103.01 71.56 129.93 47 129.93 47 152.8 274.86 152.8 274.86 129.93 255.58 129.93"/><rect class="cls-5" x="72.48" y="163.97" width="45.29" height="39.97"/><rect class="cls-5" x="139.12" y="163.97" width="45.29" height="39.97"/><rect class="cls-6" x="200.74" y="163.97" width="45.29" height="39.97"/><rect class="cls-5" x="72.48" y="216.9" width="45.29" height="39.97"/><rect class="cls-6" x="139.12" y="216.9" width="45.29" height="39.97"/><rect class="cls-5" x="200.74" y="216.9" width="45.29" height="39.97"/></g><rect class="cls-7" x="131.6" y="263.27" width="33.26" height="65.9" rx="7.69" transform="translate(-81.11 57.22) rotate(-17.23)"/><rect class="cls-7" x="283.17" y="186.08" width="33.26" height="126.26" rx="7.72" transform="translate(-60.37 100.02) rotate(-17.23)"/><path class="cls-7" d="M298.84,300.86,270,207.79,157.15,267.46l14.29,46.07,28.16-2.8c2,14.95,15.89,26.08,30.9,24.24a27.52,27.52,0,0,0,24.05-29.71ZM229.7,328.44c-11.36,1.39-21.92-7.09-23.54-18.36L248,305.91A21,21,0,0,1,229.7,328.44Z"/><line class="cls-8" x1="323.27" y1="213.55" x2="373.95" y2="196.65"/><line class="cls-8" x1="359.87" y1="229.21" x2="399" y2="217.08"/><line class="cls-8" x1="344.52" y1="260.93" x2="378.59" y2="250.37"/></svg>