<svg id="Capa_1" data-name="Capa 1" xmlns="http://www.w3.org/2000/svg" xmlns:xlink="http://www.w3.org/1999/xlink" viewBox="0 0 430 430"><defs><style>.cls-1,.cls-3,.cls-7{fill:none;}.cls-2{clip-path:url(#clip-path);}.cls-3,.cls-4,.cls-5,.cls-6{stroke:#951b81;}.cls-3,.cls-4,.cls-5,.cls-6,.cls-7{stroke-miterlimit:10;}.cls-3,.cls-4{stroke-width:10.33px;}.cls-4,.cls-5,.cls-6{fill:#951b81;}.cls-5{stroke-width:2.65px;}.cls-6,.cls-7{stroke-width:3.15px;}.cls-7{stroke:#a3195b;}.cls-8{fill:#662483;}</style><clipPath id="clip-path"><polygon class="cls-1" points="335.06 210.2 270.53 275.78 205.99 210.2 141.45 144.63 221.47 144.63 221.47 125.76 31 125.76 31 367.12 347.21 367.12 347.21 197.86 335.06 210.2"/></clipPath></defs><g class="cls-2"><path class="cls-3" d="M61.66,162.7H324a0,0,0,0,1,0,0V324.08a23,23,0,0,1-23,23H84.62a23,23,0,0,1-23-23V162.7A0,0,0,0,1,61.66,162.7Z"/><rect class="cls-4" x="61.66" y="162.7" width="262.31" height="26.33"/><rect class="cls-5" x="89.93" y="131.72" width="22.46" height="30.98"/><polygon class="cls-5" points="314.16 131.72 279.31 131.72 279.31 162.7 301.77 162.7 314.16 131.72"/><rect class="cls-6" x="90.99" y="201.89" width="52.14" height="46.01"/><rect class="cls-7" x="167.7" y="201.89" width="52.14" height="46.01"/><rect class="cls-7" x="238.64" y="201.89" width="52.14" height="46.01"/><rect class="cls-7" x="90.99" y="262.82" width="52.14" height="46.01"/><rect class="cls-6" x="167.7" y="262.82" width="52.14" height="46.01"/><rect class="cls-7" x="238.64" y="262.82" width="52.14" height="46.01"/></g><polygon class="cls-8" points="314.85 136.2 314.85 62.88 220.87 62.88 220.87 136.2 140.85 136.2 205.39 201.78 269.93 267.36 334.46 201.78 399 136.2 314.85 136.2"/></svg>