<svg id="Capa_1" data-name="Capa 1" xmlns="http://www.w3.org/2000/svg" xmlns:xlink="http://www.w3.org/1999/xlink" viewBox="0 0 430 430"><defs><style>.cls-1,.cls-3,.cls-5{fill:none;}.cls-2{clip-path:url(#clip-path);}.cls-3,.cls-5{stroke:#addbe1;stroke-miterlimit:10;}.cls-3{stroke-width:8.76px;}.cls-4{fill:#addbe1;}.cls-5{stroke-width:2.19px;}.cls-6{fill:#36a9b2;}.cls-7{fill:#20b2aa;}</style><clipPath id="clip-path"><polygon class="cls-1" points="28.73 46.17 28.73 379.03 108.77 379.03 72.06 285.91 123.62 322.88 361.87 111.49 130.33 379.03 396.89 379.03 396.89 46.17 28.73 46.17"/></clipPath></defs><g class="cls-2"><path class="cls-3" d="M183.27,228.73h194.6a0,0,0,0,1,0,0V354.8a10.68,10.68,0,0,1-10.68,10.68H194a10.68,10.68,0,0,1-10.68-10.68V228.73A0,0,0,0,1,183.27,228.73Z"/><polygon class="cls-4" points="356.99 228.73 356.99 205.74 340.32 205.74 340.32 228.73 216.5 228.73 216.5 205.74 199.83 205.74 199.83 228.73 183.27 228.73 183.27 248.26 377.87 248.26 377.87 228.73 356.99 228.73"/><rect class="cls-5" x="199.67" y="256.28" width="41.25" height="40.1"/><rect class="cls-5" x="260.36" y="256.28" width="41.25" height="40.1"/><rect class="cls-6" x="316.48" y="256.28" width="41.25" height="40.1"/><rect class="cls-5" x="199.67" y="309.38" width="41.25" height="40.1"/><rect class="cls-6" x="260.36" y="309.38" width="41.25" height="40.1"/><rect class="cls-5" x="316.48" y="309.38" width="41.25" height="40.1"/><circle class="cls-6" cx="184.08" cy="105.46" r="56.83"/><path class="cls-6" d="M173.34,242.11h0V217.66h21.48V199.59h26.51v18.07H287.6c-8.81-24.17-37.88-46-65.54-46H148.68a69.74,69.74,0,0,0-69.74,69.75v10.22a69.74,69.74,0,0,0,69.74,69.75h24.66Z"/></g><polygon class="cls-7" points="77.94 301.52 120.08 330.13 335.53 137.9 109.05 397.59 77.94 301.52"/></svg>